<?xml version="1.0" encoding="UTF-8"?>
<svg width="32px" height="32px" viewBox="0 0 32 32" version="1.1" xmlns="http://www.w3.org/2000/svg" xmlns:xlink="http://www.w3.org/1999/xlink">
    <title>chair-green</title>
    <defs>
        <filter id="filter-1">
            <feColorMatrix in="SourceGraphic" type="matrix" values="0 0 0 0 0.505882 0 0 0 0 0.588235 0 0 0 0 0.403922 0 0 0 1.000000 0"></feColorMatrix>
        </filter>
    </defs>
    <g id="Page-1" stroke="none" stroke-width="1" fill="none" fill-rule="evenodd">
        <g id="chair-green" transform="translate(-116.000000, -175.000000)" filter="url(#filter-1)">
            <g transform="translate(116.000000, 175.000000)">
                <rect id="bound" x="0" y="0" width="32" height="32"></rect>
                <path d="M12.1651757,19.6869931 L12.8091263,19.8595391 C13.3425924,20.002481 13.6591749,20.5508179 13.5162331,21.084284 L11.212811,29.6807724 C11.0698692,30.2142385 10.5215322,30.530821 9.9880661,30.3878792 L9.34411555,30.2153331 C8.81064944,30.0723913 8.49406695,29.5240544 8.63700876,28.9905883 L10.9404309,20.3940999 C11.0833727,19.8606338 11.6317096,19.5440513 12.1651757,19.6869931 Z M20.2179172,21.1158031 C20.7513833,20.9728613 21.2997202,21.2894438 21.4426621,21.8229099 L21.4426621,21.8229099 L23.3523926,28.9501214 C23.4953344,29.4835875 23.1787519,30.0319244 22.6452858,30.1748663 L22.6452858,30.1748663 L22.0013353,30.3474123 C21.4678692,30.4903541 20.9195322,30.1737716 20.7765904,29.6403055 L20.7765904,29.6403055 L18.8668599,22.513094 C18.723918,21.9796279 19.0405005,21.431291 19.5739666,21.2883491 L19.5739666,21.2883491 Z" id="Combined-Shape" fill="#000000" opacity="0.6"></path>
                <path d="M25.1666667,18.6666667 C25.9950938,18.6666667 26.6666667,19.3382395 26.6666667,20.1666667 L26.6666667,21.1666667 C26.6666667,21.9950938 25.9950938,22.6666667 25.1666667,22.6666667 L6.83333333,22.6666667 C6.00490621,22.6666667 5.33333333,21.9950938 5.33333333,21.1666667 L5.33333333,20.1666667 C5.33333333,19.3382395 6.00490621,18.6666667 6.83333333,18.6666667 L25.1666667,18.6666667 Z M22.9724125,1.33333333 C24.076982,1.33333333 24.9724125,2.22876383 24.9724125,3.33333333 C24.9724125,3.44349505 24.9633108,3.55346846 24.9452003,3.66213131 L22.7363001,16.9155328 C22.6961178,17.1566268 22.4875227,17.3333333 22.2431031,17.3333333 L9.75689688,17.3333333 C9.5124773,17.3333333 9.30388225,17.1566268 9.26369992,16.9155328 L7.05479966,3.66213131 C6.87320956,2.57259067 7.60924889,1.54213559 8.69878954,1.36054549 C8.80745239,1.34243501 8.91742579,1.33333333 9.02758751,1.33333333 L22.9724125,1.33333333 Z" id="Combined-Shape" fill="#000000"></path>
            </g>
        </g>
    </g>
</svg>