<?xml version="1.0" encoding="UTF-8"?>
<svg width="24px" height="25px" viewBox="0 0 24 25" version="1.1" xmlns="http://www.w3.org/2000/svg" xmlns:xlink="http://www.w3.org/1999/xlink">
    <title>compass</title>
    <defs>
        <filter id="filter-1">
            <feColorMatrix in="SourceGraphic" type="matrix" values="0 0 0 0 0.803922 0 0 0 0 0.674510 0 0 0 0 0.537255 0 0 0 1.000000 0"></feColorMatrix>
        </filter>
    </defs>
    <g id="Page-1" stroke="none" stroke-width="1" fill="none" fill-rule="evenodd">
        <g id="compass" transform="translate(-119.000000, -130.000000)" filter="url(#filter-1)">
            <g transform="translate(119.000000, 130.666410)">
                <rect id="bound" x="0" y="0" width="24" height="24"></rect>
                <path d="M12,2.33359045 C17.5228475,2.33359045 22,6.81074296 22,12.3335905 C22,17.856438 17.5228475,22.3335905 12,22.3335905 C6.4771525,22.3335905 2,17.856438 2,12.3335905 C2,6.81074296 6.4771525,2.33359045 12,2.33359045 Z M14.804274,6.69564141 C14.6962832,6.68915947 14.5891032,6.71787828 14.4988214,6.77748718 L9.32187664,10.1955859 C9.19054227,10.2822999 9.10769922,10.4257883 9.09826984,10.5828842 L8.72658193,16.7752992 C8.71003679,17.0509455 8.92007975,17.2878134 9.19572603,17.3043586 C9.30371678,17.3108405 9.41089683,17.2821217 9.5011786,17.2225128 L14.6781234,13.8044141 C14.8094577,13.7177001 14.8923008,13.5742117 14.9017302,13.4171158 L15.2734181,7.22470078 C15.2899632,6.9490545 15.0799202,6.71218655 14.804274,6.69564141 Z" id="Combined-Shape" fill="#000000"></path>
            </g>
        </g>
    </g>
</svg>