<?xml version="1.0" encoding="UTF-8"?>
<svg width="32px" height="32px" viewBox="0 0 32 32" version="1.1" xmlns="http://www.w3.org/2000/svg" xmlns:xlink="http://www.w3.org/1999/xlink">
    <title>deer-green</title>
    <defs>
        <filter id="filter-1">
            <feColorMatrix in="SourceGraphic" type="matrix" values="0 0 0 0 0.505882 0 0 0 0 0.588235 0 0 0 0 0.403922 0 0 0 1.000000 0"></feColorMatrix>
        </filter>
    </defs>
    <g id="Page-1" stroke="none" stroke-width="1" fill="none" fill-rule="evenodd">
        <g id="deer-green" transform="translate(-58.000000, -140.000000)" filter="url(#filter-1)">
            <g transform="translate(58.000000, 140.000000)">
                <rect id="bound" x="0" y="0" width="32" height="32"></rect>
                <path d="M29.5948215,2.6925591 C30.3169012,2.83697503 30.7851902,3.53940851 30.6407742,4.26148818 L29.3074409,10.9281548 L29.3054117,10.9383525 C29.2509822,11.2010668 29.1178463,11.4485628 28.910896,11.6411018 C28.8410274,11.7054203 28.7665258,11.7616717 28.6859943,11.8099906 L22.0193277,15.8099906 C21.8535512,15.9094564 21.6686422,15.9713829 21.4775805,15.9921749 L21.3333333,16 L21.3333333,16 L10.6666667,16 C10.4250081,16 10.1878929,15.9343229 9.98067233,15.8099906 L3.31400566,11.8099906 C3.23347422,11.7616717 3.15897265,11.7054203 3.09136809,11.642467 C2.88215371,11.4485628 2.74901778,11.2010668 2.6945883,10.9383525 C2.69392622,10.9349222 2.69323624,10.9315406 2.6925591,10.9281548 L1.35922577,4.26148818 C1.21480983,3.53940851 1.68309882,2.83697503 2.40517849,2.6925591 C3.12725816,2.54814316 3.82969163,3.01643215 3.97410757,3.73851182 L4.81807621,7.96240955 L8.39052429,4.39052429 C8.91122335,3.86982524 9.75544332,3.86982524 10.2761424,4.39052429 C10.7968414,4.91122335 10.7968414,5.75544332 10.2761424,6.27614237 L6.15033662,10.4019481 L11.0359786,13.3333333 L20.9640214,13.3333333 L25.8496634,10.4019481 L21.7238576,6.27614237 C21.2031586,5.75544332 21.2031586,4.91122335 21.7238576,4.39052429 C22.2445567,3.86982524 23.0887767,3.86982524 23.6094757,4.39052429 L27.1810762,7.96240955 L28.0258924,3.73851182 C28.1703084,3.01643215 28.8727418,2.54814316 29.5948215,2.6925591 Z M20.0703819,11.8592363 C19.4117439,11.5299173 19.1447781,10.7290199 19.4740971,10.0703819 C19.8034161,9.41174388 20.6043135,9.14477808 21.2629515,9.47409708 L25.2629515,11.4740971 C26.2039965,11.9446196 26.2548468,13.2686791 25.352661,13.8099906 L22.0193277,15.8099906 C21.8121071,15.9343229 21.5749919,16 21.3333333,16 L10.6666667,16 C10.4250081,16 10.1878929,15.9343229 9.98067233,15.8099906 L6.64733899,13.8099906 C5.78422034,13.2921194 5.78422034,12.041214 6.64733899,11.5233428 L9.98067233,9.52334277 C10.6121127,9.14447855 11.4311264,9.34923197 11.8099906,9.98067233 C12.1888548,10.6121127 11.9841014,11.4311264 11.352661,11.8099906 L9.92486751,12.6666667 L11.0359786,13.3333333 L20.9640214,13.3333333 L21.8979099,12.7730002 L20.0703819,11.8592363 Z" id="Combined-Shape" fill="#FFFFFF" fill-rule="nonzero" opacity="0.6"></path>
                <path d="M12.1887333,13.3333333 L19.8112667,13.3333333 C20.9158362,13.3333333 21.8112667,14.2287638 21.8112667,15.3333333 C21.8112667,15.5664384 21.7705156,15.7977489 21.6908535,16.0168195 L17.7889908,26.7469421 C17.5154336,27.4992242 16.8004761,28 16,28 C15.1995239,28 14.4845664,27.4992242 14.2110092,26.7469421 L10.3091465,16.0168195 C9.93166751,14.9787523 10.46718,13.8312255 11.5052472,13.4537465 C11.7243178,13.3740845 11.9556283,13.3333333 12.1887333,13.3333333 Z" id="Rectangle-192" fill="#FFFFFF"></path>
            </g>
        </g>
    </g>
</svg>