<?xml version="1.0" encoding="UTF-8"?>
<svg width="32px" height="32px" viewBox="0 0 32 32" version="1.1" xmlns="http://www.w3.org/2000/svg" xmlns:xlink="http://www.w3.org/1999/xlink">
    <title>fireplace-white</title>
    <defs>
        <filter id="filter-1">
            <feColorMatrix in="SourceGraphic" type="matrix" values="0 0 0 0 1.000000 0 0 0 0 1.000000 0 0 0 0 1.000000 0 0 0 1.000000 0"></feColorMatrix>
        </filter>
    </defs>
    <g id="Page-1" stroke="none" stroke-width="1" fill="none" fill-rule="evenodd">
        <g id="fireplace-white" transform="translate(-214.000000, -140.000000)" filter="url(#filter-1)">
            <g transform="translate(214.000000, 140.000000)">
                <rect id="bound" x="0" y="0" width="32" height="32"></rect>
                <path d="M26,5.33333333 C27.1045695,5.33333333 28,6.22876383 28,7.33333333 L28,24.6666667 C28,25.7712362 27.1045695,26.6666667 26,26.6666667 L22.666,26.6663333 L22.6666667,14.3333333 C22.6666667,11.6445786 20.54436,9.45151522 17.8835563,9.33795285 L17.6666667,9.33333333 L14.3333333,9.33333333 C11.5719096,9.33333333 9.33333333,11.5719096 9.33333333,14.3333333 L9.33333333,14.3333333 L9.333,26.6663333 L6,26.6666667 C4.8954305,26.6666667 4,25.7712362 4,24.6666667 L4,7.33333333 C4,6.22876383 4.8954305,5.33333333 6,5.33333333 L26,5.33333333 Z" id="Combined-Shape" fill="#000000" opacity="0.6"></path>
                <path d="M17.29567,15.6007557 C17.079725,17.7602057 16.43189,18.9155824 15.352165,19.0668861 C15.352165,19.0668861 16.3239175,15.2768383 15.0282475,13.3333333 C15.0282475,13.3333333 14.8908534,15.4157648 13.502588,17.9146425 C12.8518397,19.0859895 12.1129901,19.875611 12.1129901,21.4312705 C12.1129901,23.6524952 14.3878232,24.8004389 16.0037053,24.8004389 C17.6195874,24.8004389 19.8870099,24.0230102 19.8870099,21.3020101 C19.8870099,20.1831505 19.0232299,18.2827324 17.29567,15.6007557 Z" id="Path-17" fill="#000000"></path>
            </g>
        </g>
    </g>
</svg>