<?xml version="1.0" encoding="UTF-8"?>
<svg width="676px" height="327px" viewBox="0 0 676 327" version="1.1" xmlns="http://www.w3.org/2000/svg" xmlns:xlink="http://www.w3.org/1999/xlink">
    <title>illustration-3</title>
    <defs>
        <linearGradient x1="41.111796%" y1="36.6105193%" x2="41.1240333%" y2="56.829976%" id="linearGradient-1">
            <stop stop-color="#6885EF" stop-opacity="0.15" offset="0%"></stop>
            <stop stop-color="#FF90B1" stop-opacity="0.21" offset="100%"></stop>
        </linearGradient>
        <radialGradient cx="117.761917%" cy="100%" fx="117.761917%" fy="100%" r="359.562189%" gradientTransform="translate(1.177619,1.000000),scale(1.000000,0.374479),rotate(-72.942960),translate(-1.177619,-1.000000)" id="radialGradient-2">
            <stop stop-color="#C2DDC7" offset="0%"></stop>
            <stop stop-color="#8FB996" offset="100%"></stop>
        </radialGradient>
        <linearGradient x1="117.761917%" y1="51.1365379%" x2="223.229989%" y2="48.2105061%" id="linearGradient-3">
            <stop stop-color="#C2DDC7" offset="0%"></stop>
            <stop stop-color="#8FB996" offset="100%"></stop>
        </linearGradient>
        <radialGradient cx="117.761917%" cy="100%" fx="117.761917%" fy="100%" r="537.863004%" gradientTransform="translate(1.177619,1.000000),scale(0.201956,1.000000),rotate(-13.846880),translate(-1.177619,-1.000000)" id="radialGradient-4">
            <stop stop-color="#C2DDC7" offset="0%"></stop>
            <stop stop-color="#8FB996" offset="100%"></stop>
        </radialGradient>
        <linearGradient x1="65.1933546%" y1="55.6954782%" x2="123.809605%" y2="16.4283497%" id="linearGradient-5">
            <stop stop-color="#C2DDC7" offset="0%"></stop>
            <stop stop-color="#8FB996" offset="100%"></stop>
        </linearGradient>
        <radialGradient cx="117.761917%" cy="100%" fx="117.761917%" fy="100%" r="170.323946%" gradientTransform="translate(1.177619,1.000000),scale(0.945609,1.000000),rotate(-49.092661),translate(-1.177619,-1.000000)" id="radialGradient-6">
            <stop stop-color="#C2DDC7" offset="0%"></stop>
            <stop stop-color="#8FB996" offset="100%"></stop>
        </radialGradient>
        <radialGradient cx="117.761917%" cy="100%" fx="117.761917%" fy="100%" r="229.630958%" gradientTransform="translate(1.177619,1.000000),scale(1.000000,0.631077),rotate(-62.658454),translate(-1.177619,-1.000000)" id="radialGradient-7">
            <stop stop-color="#C2DDC7" offset="0%"></stop>
            <stop stop-color="#8FB996" offset="100%"></stop>
        </radialGradient>
        <linearGradient x1="117.761917%" y1="99.1787432%" x2="67.8386876%" y2="-29.4559636%" id="linearGradient-8">
            <stop stop-color="#C2DDC7" offset="0%"></stop>
            <stop stop-color="#8FB996" offset="100%"></stop>
        </linearGradient>
        <radialGradient cx="117.761917%" cy="100%" fx="117.761917%" fy="100%" r="226.91659%" gradientTransform="translate(1.177619,1.000000),scale(0.564389,1.000000),rotate(-34.560897),translate(-1.177619,-1.000000)" id="radialGradient-9">
            <stop stop-color="#C2DDC7" offset="0%"></stop>
            <stop stop-color="#8FB996" offset="100%"></stop>
        </radialGradient>
        <linearGradient x1="279.013333%" y1="68.0708676%" x2="15.6392365%" y2="47.3907174%" id="linearGradient-10">
            <stop stop-color="#C2DDC7" offset="0%"></stop>
            <stop stop-color="#8FB996" offset="100%"></stop>
        </linearGradient>
        <linearGradient x1="40.3071523%" y1="-3.61067059%" x2="67.4238929%" y2="108.163034%" id="linearGradient-11">
            <stop stop-color="#E8D6BE" offset="0%"></stop>
            <stop stop-color="#CDAC89" offset="100%"></stop>
        </linearGradient>
        <linearGradient x1="79.1333947%" y1="49.6336077%" x2="2.92613092%" y2="50.296045%" id="linearGradient-12">
            <stop stop-color="#D2A0C2" offset="0%"></stop>
            <stop stop-color="#DCBED2" offset="100%"></stop>
        </linearGradient>
    </defs>
    <g id="Page-1" stroke="none" stroke-width="1" fill="none" fill-rule="evenodd">
        <g id="Artboard" transform="translate(-808.000000, -617.000000)" fill-rule="nonzero">
            <g id="illustration-3" transform="translate(808.000000, 617.000000)">
                <g id="bg" transform="translate(34.000000, 0.000000)">
                    <path d="M567.852,103.667 C512.098,1.091 299.441,-27.206 176.8,28.999 C117.779,56.048 89.247,131.767 105.856,189.758 C126.617,262.245 340.762,269.635 472.376,231.939 C619.385,189.834 583.408,132.287 567.852,103.667 Z" id="Shape" fill="url(#linearGradient-1)"></path>
                    <path d="M569.661,221.695 C590.669,216.489 641.114,206.075 641.114,196.096 L0.8521,198.429 C0.8521,198.429 0.8521,227.5 54.613,227.5 C87.526,227.5 118.025,227.526 118.025,235.77 C118.025,246.618 79.472,239.485 79.472,250.332 C79.472,261.18 110.284,265.518 160.003,265.518 C209.722,265.518 436.61,265.085 496.132,265.518 C555.655,265.952 581.565,247.729 560.557,242.088 C539.549,236.448 548.652,226.902 569.661,221.695 Z" id="Shape" fill="#9CB0F4"></path>
                </g>
                <g id="shadows" transform="translate(99.000000, 285.000000)" fill="#FAF6EB">
                    <ellipse id="Oval" cx="364.614" cy="19.5" rx="150.5" ry="19.5"></ellipse>
                    <ellipse id="Oval" cx="132.613" cy="22.5" rx="132.5" ry="19.5"></ellipse>
                </g>
                <g id="plants" transform="translate(0.000000, 25.000000)">
                    <g id="plant_01" transform="translate(164.000000, 200.000000)">
                        <path d="M72.512,72.688 C69.109,62.488 65.493,41.672 32.848,12.22 C40.799,44.078 72.512,72.688 72.512,72.688 Z" id="Shape" fill="#8FB996"></path>
                        <path d="M72.845,72.382 C71.787,61.705 72.88,40.656 47.519,4.752 C48.209,37.504 72.845,72.382 72.845,72.382 Z" id="Shape" fill="url(#radialGradient-2)"></path>
                        <path d="M72.914,72.506 C74.682,61.953 81.244,41.984 66.083,0.796 C58.186,32.495 72.914,72.506 72.914,72.506 Z" id="Shape" fill="#97ADFB"></path>
                        <path d="M72.712,72.315 C77.595,62.827 89.912,45.845 87.87,2.136 C70.728,29.854 72.712,72.315 72.712,72.315 Z" id="Shape" fill="#97ADFB"></path>
                        <path d="M72.411,72.833 C61.945,70.42 42.264,62.641 0.54,75.265 C31.88,85.097 72.411,72.833 72.411,72.833 Z" id="Shape" fill="url(#linearGradient-3)"></path>
                        <path d="M72.316,72.388 C62.623,67.713 45.117,55.769 1.53,58.766 C29.975,75.299 72.316,72.388 72.316,72.388 Z" id="Shape" fill="url(#radialGradient-4)"></path>
                        <path d="M72.457,72.393 C64.296,65.358 50.472,49.283 7.495,40.762 C30.708,64.115 72.457,72.393 72.457,72.393 Z" id="Shape" fill="url(#linearGradient-5)"></path>
                        <path d="M72.191,72.467 C66.513,63.315 58.154,43.863 19.627,22.762 C34.764,51.969 72.191,72.467 72.191,72.467 Z" id="Shape" fill="url(#radialGradient-6)"></path>
                        <path d="M72.111,72.635 C79.952,65.415 97.362,53.71 110.324,12.083 C84.703,32.196 72.111,72.635 72.111,72.635 Z" id="Shape" fill="url(#radialGradient-7)"></path>
                        <path d="M72.531,72.814 C81.799,67.536 101.418,60.026 123.34,22.424 C93.827,36.287 72.531,72.814 72.531,72.814 Z" id="Shape" fill="url(#linearGradient-8)"></path>
                        <path d="M72.448,72.927 C82.8,70.273 103.756,68.179 134.811,37.73 C102.615,43.348 72.448,72.927 72.448,72.927 Z" id="Shape" fill="url(#radialGradient-9)"></path>
                        <path d="M72.536,72.665 C83.24,73.278 103.916,77.631 142.828,58.109 C110.336,53.701 72.536,72.665 72.536,72.665 Z" id="Shape" fill="url(#linearGradient-10)"></path>
                    </g>
                    <g id="palm_tree">
                        <path d="M174.202,126.596 C166.834,123.139 163.087,111.692 162.134,106.4 C164.558,105.867 169.156,105.627 170.339,109.038 C173.816,119.064 185.523,120.296 188.926,132.877 C186.361,129.884 183.412,130.917 174.202,126.596 Z" id="Shape" fill="#FF90B1"></path>
                        <path d="M222.763,281.44 C215.317,283.92 202.906,283.3 200.424,278.961 C200.424,276.481 205.388,269.662 214.075,266.563 C221.025,264.083 228.14,269.662 230.829,272.762 C230.622,274.828 228.719,279.457 222.763,281.44 Z" id="Shape" fill="#3C56C6"></path>
                        <path d="M65.774,68.811 C114.174,68.811 142.51,90.714 159.471,100.426 C151.404,58.272 120.641,41.949 81.287,31.616 C49.686,23.318 11.1691,61.372 0,58.272 C4.3436,63.231 21.0504,68.811 65.774,68.811 Z" id="Shape" fill="#FED0DB"></path>
                        <path d="M164.688,25.417 C141.729,56.412 153.932,83.275 154.759,103.526 C167.997,85.755 171.475,62.896 199.436,41.535 C220.534,25.417 242.045,15.085 255.282,0 C245.975,9.299 184.65,-1.534 164.688,25.417 Z" id="Shape" fill="#FED0DB"></path>
                        <path d="M122.24,150.639 C122.24,123.859 146.647,106.005 158.85,100.426 C154.921,110.964 152.462,135.939 150.163,150.639 C147.061,170.476 154.921,194.033 158.85,206.431 C146.647,198.992 122.24,177.419 122.24,150.639 Z" id="Shape" fill="#FED0DB"></path>
                        <path d="M159.113,103.5 C215.03,153.713 230.83,227.508 230.83,274.621 C238.276,280.82 259.993,281.44 267.44,274.621 C267.44,221.309 219.718,135.675 165.113,96 C160.769,96 159.113,102.26 159.113,103.5 Z" id="Shape" fill="url(#linearGradient-11)"></path>
                        <path d="M207.242,63.679 C178.295,75.845 163.166,92.974 159.22,100.017 C171.217,102.017 203.034,104.068 234.33,96.268 C265.626,88.469 294.121,92.367 302.808,113.444 C308.393,66.951 243.425,48.471 207.242,63.679 Z" id="Shape" fill="#FED0DB"></path>
                        <path d="M98.661,91.127 C130.928,88.152 153.059,96.087 160.092,100.426 C150.163,107.865 141.476,110.345 98.661,137.001 C71.926,153.646 60.81,164.277 67.015,183.494 C31.6465,150.639 58.328,94.847 98.661,91.127 Z" id="Shape" fill="#FED0DB"></path>
                        <path d="M167.358,96.026 C168.678,90.969 166.602,85.802 161.501,85.694 C156.752,85.594 154.336,89.469 153.235,93.682 C152.135,97.896 154.831,102.137 156.708,103.139 C158.585,104.142 165.707,102.346 167.358,96.026 Z" id="Shape" fill-opacity="0.6" fill="#CDAC89"></path>
                        <path d="M148.234,108.806 C143.705,103.543 142.764,96.064 148.191,92.805 C153.242,89.772 158.225,92.944 161.999,97.329 C165.773,101.715 165.477,108.461 164.072,110.817 C162.668,113.173 153.895,115.384 148.234,108.806 Z" id="Shape" fill-opacity="0.7" fill="#CDAC89"></path>
                        <path d="M179.688,96.375 C177.11,89.957 170.794,86.309 165.228,90.531 C160.047,94.461 160.514,100.572 162.662,105.921 C164.811,111.269 170.226,111.552 173.035,111.007 C175.844,110.462 182.911,104.398 179.688,96.375 Z" id="Shape" fill-opacity="0.6" fill="#CDAC89"></path>
                        <path d="M228.968,275.861 C228.761,271.109 230.457,261.107 238.896,259.124 C249.445,256.644 259.994,263.463 261.235,269.662 C261.53,271.137 262.071,272.225 262.716,273.095 C261.834,271.271 271.532,270.055 276.747,269.662 C283.986,270.902 296.852,273.878 290.398,275.861 C284.211,277.946 273.387,280.374 267.313,278.227 C267.481,278.779 267.537,279.421 267.44,280.201 C263.303,282.68 253.416,286.896 246.963,283.92 C240.344,284.127 226.734,283.672 225.245,280.201 C223.756,276.729 227.107,275.861 228.968,275.861 Z" id="Shape" fill="#3C56C6"></path>
                    </g>
                </g>
                <g id="chair" transform="translate(299.000000, 230.000000)">
                    <path d="M60.467,81.45 L71.872,52.264 L77.649,52.264 L65.479,83.408 C65.076,84.44 64.081,85.119 62.973,85.119 C61.079,85.119 59.778,83.214 60.467,81.45 Z" id="Shape" fill="#6785EF"></path>
                    <path d="M54.547,69.186 L65.952,40 L71.729,40 L59.559,71.144 C59.156,72.176 58.161,72.856 57.053,72.856 C55.159,72.856 53.858,70.95 54.547,69.186 Z" id="Shape" fill="#3A59C4"></path>
                    <path d="M265.278,68.817 L252.631,40 L246.114,40 L259.813,71.215 C260.289,72.3 261.361,73 262.545,73 C264.699,73 266.143,70.789 265.278,68.817 Z" id="Shape" fill="#3A59C4"></path>
                    <path d="M279.175,79.699 L267.867,52.264 L261.32,52.264 L273.578,82.006 C274.046,83.14 275.151,83.879 276.377,83.879 C278.532,83.879 279.996,81.692 279.175,79.699 Z" id="Shape" fill="#6785EF"></path>
                    <path d="M72.684,47.305 L4.374,0.801 C3.349,0.103 1.961,0.297 1.167,1.25 C0.255,2.343 0.485,3.985 1.662,4.786 L71.443,52.264 L276.634,52.264 C278.003,52.264 279.113,51.154 279.113,49.784 C279.113,48.415 278.003,47.305 276.634,47.305 L72.684,47.305 Z" id="Shape" fill="#5678F1"></path>
                    <path d="M72.685,47.305 L8.152,3.291 C12.702,0.191 25.646,0.108 36.075,3.291 C46.745,6.547 52.177,11.135 59.654,19.409 C66.562,27.054 71.237,36.766 72.685,42.345 C73.719,38.626 81.372,31.187 111.777,31.187 L225.95,31.187 C258.837,31.187 262.147,41.932 265.663,47.305 L72.685,47.305 Z" id="Shape" fill="#FFC7D8"></path>
                </g>
                <g id="character" transform="translate(338.000000, 162.000000)">
                    <circle id="Oval" fill-opacity="0.18" fill="#FFFFFF" cx="60.113" cy="35" r="35"></circle>
                    <polygon id="Shape" fill="#001E87" points="54.782 32.856 60.366 44.634 66.571 45.874 60.366 34.096"></polygon>
                    <path d="M60.367,44.015 C60.863,45.998 63.883,47.734 65.331,48.354 C65.951,48.354 67.441,48.106 68.433,47.114 C69.674,45.874 65.951,39.675 64.09,36.576 C62.228,33.476 59.746,32.856 60.367,34.716 C60.987,36.576 59.746,41.535 60.367,44.015 Z" id="Shape" fill="#FFE0EA"></path>
                    <path d="M128.578,84.689 C110.761,85.206 87.067,79.876 84.299,95.001 C83.105,101.524 87.758,106 96.06,106 C114.096,106 143.799,97.922 143.799,97.922 C143.799,97.922 145.234,97.556 145.874,97.922 C154.869,103.061 167.322,99.125 183.235,100.5 C184.338,100.596 185.049,101.356 185.311,101.875 C186.003,103.25 190.009,104.082 191.538,102.563 C194.997,95.001 199.148,96.376 202.607,90.188 C203.981,88.596 202.469,84.139 199.148,87.439 C194.997,91.563 189.462,91.563 185.311,93.626 C170.781,93.626 144.491,83.884 138.956,84.001 C134.895,84.087 131.008,84.618 128.578,84.689 Z" id="Shape" fill="#FFE0EA"></path>
                    <path d="M141.113,99.5 C139.252,97.64 134.613,87.96 134.613,83 C128.113,84.5 94.867,87.037 93.875,88.028 C92.634,89.268 92.89,108 96.613,108 C99.592,108 113.113,106.006 141.113,99.5 Z" id="Shape" fill="#6885EF"></path>
                    <path d="M52.3,106.626 C42.869,106.626 35.753,101.253 35.546,97.947 C35.133,96.087 35.547,91.748 38.029,89.268 C41.131,86.169 47.957,83.069 55.403,83.069 C61.36,83.069 64.711,84.309 67.814,84.929 C71.123,84.929 71.984,84.494 77.121,84.309 C86.437,83.973 91.01,87.5 94.113,87.5 C102.18,87.5 103.803,94.228 103.803,97.947 C103.803,101.666 99.575,108 97.613,108 C90.113,108 89.957,107.62 85.613,107 C81.27,106.38 78.362,105.386 74.019,105.386 C69.675,105.386 64.09,106.626 52.3,106.626 Z" id="Shape" fill="url(#linearGradient-12)"></path>
                    <path d="M86.157,95.516 C86.157,92.578 90.025,88.417 91.959,86.703 C101.87,78.136 123.722,61 131.844,61 C139.966,61 154.566,85.969 160.851,98.453 C161.818,99.188 164.042,100.95 165.202,102.125 C166.653,103.594 171.729,104.328 173.905,104.328 C176.08,104.328 177.531,108 173.905,108 L157.951,108 C155.05,108 154.325,107.021 154.325,106.531 C154.325,105.356 155.292,103.104 155.775,102.125 C153.6,97.719 147.798,94.781 142.722,89.641 C138.661,85.528 133.778,79.115 131.844,76.422 C130.394,79.36 112.264,108 98.485,108 C84.707,108 86.157,99.188 86.157,95.516 Z" id="Shape" fill="#FFE0EA"></path>
                    <path d="M78.363,80.705 C76.377,84.134 60.233,97.632 52.95,101.504 C47.653,104.32 43.352,102.971 41.189,98.729 C36.416,89.367 49.226,84.282 51.947,84.126 C56.35,77.657 64.136,74.62 68.778,72.281 C66.859,67.42 65.238,54.302 64.933,49.026 C65.28,47.165 66.567,44.236 68.934,47.414 C71.893,51.387 79.807,70.265 81.366,73.627 C82.613,76.318 79.884,79.467 78.363,80.705 Z" id="Shape" fill="#FFE0EA"></path>
                    <path d="M121.613,63 L88.196,86 C88.196,90.5 88.499,106.065 84.613,108.006 C86.061,108.213 95.626,108.006 99.597,108.006 C105.613,108.006 127.113,94.5 132.113,80 C129.113,74.5 125.543,67.959 121.613,63 Z" id="Shape" fill="#6885EF"></path>
                    <path d="M16.154,95.351 C8.962,94.52 6.208,86.592 7.64,79.406 C8.611,74.533 15.582,72.11 18.191,71.899 C20.8,71.688 24.382,75.39 26.884,73.857 C29.385,72.323 29.332,71.662 31.556,74.809 C33.781,77.956 38.293,76.925 39.052,78.194 C39.812,79.463 38.722,82.213 38.883,84.196 C39.085,86.69 42.573,89.22 42.573,89.22 C42.573,89.22 37.6,98.05 36.801,99.002 C28.357,94.759 24.811,96.35 16.154,95.351 Z" id="Shape" fill="#FFE0EA"></path>
                    <path d="M36.613,92 C36.213,93.6 35.447,98 35.113,99.5 C36.113,102.5 39.613,105 44.613,107 C49.613,109 62.613,109 71.113,108.5 C77.913,108.1 85.947,108.667 89.113,109 C91.913,108.2 91.28,92 90.613,84.5 C88.113,85 87.113,85 81.613,84.5 C77.213,84.1 75.113,84.334 74.613,84.5 C74.213,85.3 71.947,87.5 68.113,90.5 C67.713,88.5 63.113,79.833 60.113,76.5 C57.113,77.5 53.494,80.242 49.113,82.5 C45.375,84.428 41.78,86.334 39.613,87.5 C38.78,88.334 37.013,90.4 36.613,92 Z" id="Shape" fill="#FFFFFF"></path>
                    <path d="M7.141,92.881 C9.892,96.06 20.508,96.249 25.472,95.946 L25.779,94.518 C23.99,93.068 24.798,91.142 18.59,86.205 C13.646,83.097 15.549,74.048 15.102,70.908 C12.821,67.405 9.824,67.378 6.595,67.295 C3.762,67.221 -0.954,71.307 0.347,71.017 C1.648,70.727 3.178,73.68 2.741,77.553 C2.305,81.426 3.703,88.908 7.141,92.881 Z" id="Shape" fill="#4057A7"></path>
                </g>
            </g>
        </g>
    </g>
</svg>