<?xml version="1.0" encoding="UTF-8"?>
<svg width="543px" height="403px" viewBox="0 0 543 403" version="1.1" xmlns="http://www.w3.org/2000/svg" xmlns:xlink="http://www.w3.org/1999/xlink">
    <title>illustration-1</title>
    <defs>
        <filter id="filter-1">
            <feColorMatrix in="SourceGraphic" type="matrix" values="0 0 0 0 0.560784 0 0 0 0 0.725490 0 0 0 0 0.588235 0 0 0 1.000000 0"></feColorMatrix>
        </filter>
        <filter id="filter-2">
            <feColorMatrix in="SourceGraphic" type="matrix" values="0 0 0 0 0.560784 0 0 0 0 0.725490 0 0 0 0 0.588235 0 0 0 1.000000 0"></feColorMatrix>
        </filter>
        <ellipse id="path-3" cx="44.055" cy="26.347" rx="17.2513" ry="41.2347"></ellipse>
        <filter id="filter-5">
            <feColorMatrix in="SourceGraphic" type="matrix" values="0 0 0 0 0.560784 0 0 0 0 0.725490 0 0 0 0 0.588235 0 0 0 1.000000 0"></feColorMatrix>
        </filter>
        <ellipse id="path-6" cx="48.498" cy="47.087" rx="19.9046" ry="47.5768"></ellipse>
        <filter id="filter-8">
            <feColorMatrix in="SourceGraphic" type="matrix" values="0 0 0 0 0.560784 0 0 0 0 0.725490 0 0 0 0 0.588235 0 0 0 1.000000 0"></feColorMatrix>
        </filter>
        <ellipse id="path-9" cx="34.62" cy="52.08" rx="19.9046" ry="47.5768"></ellipse>
        <linearGradient x1="2.0753079%" y1="16.6937401%" x2="121.332951%" y2="84.4058066%" id="linearGradient-11">
            <stop stop-color="#FFE9E7" offset="0%"></stop>
            <stop stop-color="#FFCECA" offset="100%"></stop>
        </linearGradient>
        <linearGradient x1="86.2406411%" y1="84.5847041%" x2="33.6914328%" y2="29.2310493%" id="linearGradient-12">
            <stop stop-color="#FFE9E7" offset="0%"></stop>
            <stop stop-color="#FFCECA" offset="100%"></stop>
        </linearGradient>
    </defs>
    <g id="Page-1" stroke="none" stroke-width="1" fill="none" fill-rule="evenodd">
        <g id="Artboard" transform="translate(-79.000000, -71.000000)">
            <g id="Group" transform="translate(79.523000, 71.873380)">
                <path d="M213.499,182.89862 L213.499,182.89862 C304.085,182.89862 316.531,301.25462 383.527,301.25462 C433.854,301.25462 470.582,201.73262 445.543,123.72862 C423.737,55.80062 373.189,11.16762 291.663,1.38462003 C213.499,-7.99437997 98.001,30.46962 98.001,110.83562 C98.001,182.89862 157.294,182.89862 213.499,182.89862 Z" id="Shape" fill="#FAF6EB" fill-rule="nonzero"></path>
                <path d="M300.025,380.73662 C300.025,390.38862 232.862,398.21362 150.013,398.21362 C67.163,398.21362 0,390.38862 0,380.73662 C0,371.08462 67.163,363.25962 150.013,363.25962 C232.862,363.25962 300.025,371.08462 300.025,380.73662 Z" id="Shape" fill="#FAF6EB" fill-rule="nonzero"></path>
                <path d="M452.884,387.91262 C474.978,367.41862 423.897,371.49362 397.943,371.49362 C371.989,371.49362 306.822,368.00262 306.822,380.12162 C306.822,392.24062 334.05,381.85262 366.453,387.91262 C417.374,397.43462 426.754,412.15062 452.884,387.91262 Z" id="Shape" fill="#FAF6EB" fill-rule="nonzero"></path>
                <path d="M535.795,221.70962 C535.723,221.74162 535.653,221.77462 535.585,221.80762 C532.143,223.49862 525.428,230.40162 524.155,232.82862 C526.675,232.94362 536.414,232.21462 539.86,230.52562 C543.345,241.37362 541.912,252.92562 536.509,262.40362 C531.285,257.49062 524.429,252.97262 516.026,251.43562 C523.551,256.77562 528.985,262.79362 532.729,267.90462 C529.226,272.18162 524.771,275.79362 519.484,278.38962 C518.606,278.82062 517.694,279.24562 516.75,279.66062 C514.116,273.06062 509.856,266.27162 502.974,261.90462 C507.11,269.00762 509.453,276.07462 510.774,282.01462 C504.61,284.17662 497.634,285.85062 490.59,286.51862 C490.258,280.24562 488.731,273.73662 484.894,268.33262 C485.76,275.03762 485.572,281.35162 484.919,286.83062 C475.414,286.95462 466.147,284.98662 458.955,279.64562 C464.085,275.59262 465.813,268.21562 462.718,261.91362 C459.68,255.72662 452.98,252.58362 446.733,253.96662 C447.229,245.12662 451.55,236.42362 457.593,228.78962 C462.099,232.08262 466.871,236.16462 471.434,241.15162 C469.335,234.76962 465.492,229.26962 461.101,224.67962 C466.103,219.22362 471.871,214.47862 477.49,210.85362 C481.26,216.02862 485.158,222.44462 488.316,230.00662 C488.537,222.03262 486.024,214.39562 482.642,207.81762 C483.231,207.50462 483.815,207.20562 484.392,206.92262 C489.689,204.32162 495.282,203.00562 500.819,202.85262 C502.401,209.00662 503.646,216.33062 503.807,224.43162 C506.737,217.56762 507.332,210.10062 506.797,203.13962 C518.468,204.58562 529.292,211.17062 535.795,221.70962 Z" id="Shape" fill="#CDAC89"></path>
                <path d="M390.499,306.08962 C407.561,276.51062 446.175,263.06762 462.283,257.32162 L463.353,259.50062 C447.107,264.23262 409.569,281.04162 394.374,310.67662 C381.251,336.27262 385.192,361.92962 390.151,376.33562 C390.641,377.75762 390.025,379.33662 388.675,379.99962 C387.146,380.74962 385.302,380.03462 384.756,378.42062 C379.672,363.38362 374.568,333.70762 390.499,306.08962 Z" id="Shape" fill="#CDAC89" fill-rule="nonzero"></path>
                <g filter="url(#filter-1)" id="plant_03">
                    <g transform="translate(241.477000, 299.126620)">
                        <path d="M17.132,16.52 C36.934,-0.976 60.276,1.119 71.692,0.858 C70.42,6.526 67.85,10.359 61.053,18.881 C54.255,27.403 43.121,35.661 29.005,35.438 C36.668,54.657 4.083,78.319 0.914,80.847 C0.872,80.939 0.821,81.001 0.76,81.033 C0.594,81.118 0.658,81.052 0.914,80.847 C2.413,77.617 -6.938,37.786 17.132,16.52 Z" id="Shape" fill="#F9759C" fill-rule="nonzero"></path>
                    </g>
                </g>
                <g id="plant_02" transform="translate(8.477000, 191.126620)" fill="#FEF1F4" fill-rule="nonzero">
                    <path d="M108.827,159.025 C119.337,176.93 96.69,179.901 99.603,184.27 C132.13,184.27 148.887,159.51 139.177,137.664 C129.468,115.817 95.719,103.681 51.541,80.378 C10.547,58.754 18.46,22.919 32.426,1.962 C33.047,1.03 31.931,-0.139 31.019,0.51 C-12.782,31.663 -8.555,91.324 35.771,112.905 C81.64,135.237 98.317,141.12 108.827,159.025 Z" id="Shape"></path>
                </g>
                <g filter="url(#filter-2)" id="Clipped">
                    <g transform="translate(18.477000, 344.126620)">
                        <mask id="mask-4" fill="white">
                            <use xlink:href="#path-3"></use>
                        </mask>
                        <g id="Oval" transform="translate(44.055000, 26.347000) rotate(-77.776900) translate(-44.055000, -26.347000) "></g>
                        <ellipse id="Oval" fill-opacity="0.7" fill="#F9759C" fill-rule="nonzero" mask="url(#mask-4)" transform="translate(46.728000, 14.011000) rotate(-77.776900) translate(-46.728000, -14.011000) " cx="46.728" cy="14.011" rx="17.2513" ry="41.2347"></ellipse>
                    </g>
                </g>
                <g filter="url(#filter-5)" id="Clipped">
                    <g transform="translate(15.477000, 300.126620)">
                        <mask id="mask-7" fill="white">
                            <use xlink:href="#path-6"></use>
                        </mask>
                        <g id="Oval" transform="translate(48.498000, 47.087000) rotate(-47.222400) translate(-48.498000, -47.087000) "></g>
                        <ellipse id="Oval" fill-opacity="0.7" fill="#FF9BB9" fill-rule="nonzero" mask="url(#mask-7)" transform="translate(58.389000, 36.397000) rotate(-47.222400) translate(-58.389000, -36.397000) " cx="58.389" cy="36.397" rx="19.9046" ry="47.5768"></ellipse>
                    </g>
                </g>
                <g filter="url(#filter-8)" id="Clipped">
                    <g transform="translate(45.477000, 280.126620)">
                        <mask id="mask-10" fill="white">
                            <use xlink:href="#path-9"></use>
                        </mask>
                        <g id="Oval" transform="translate(34.620000, 52.080000) rotate(-19.227000) translate(-34.620000, -52.080000) "></g>
                        <ellipse id="Oval" fill-opacity="0.7" fill="#FFB8CD" fill-rule="nonzero" mask="url(#mask-10)" transform="translate(49.184000, 49.167000) rotate(-19.227000) translate(-49.184000, -49.167000) " cx="49.184" cy="49.167" rx="19.9046" ry="47.5768"></ellipse>
                    </g>
                </g>
                <polygon id="Shape" fill="#FFE0F5" fill-rule="nonzero" points="136.905 375.88162 136.905 363.25962 143.701 363.25962 141.61 375.88162"></polygon>
                <polygon id="Shape" fill="#FFE0F5" fill-rule="nonzero" points="177.47 378.56862 175.743 366.06462 181.995 365.20162 181.798 377.97062"></polygon>
                <path d="M139.818,317.28362 C140.206,307.18562 136.419,259.36762 139.332,252.71462 C143.701,253.68562 149.43,254.17162 158.751,254.17162 C168.072,254.17162 175.257,253.20062 178.17,252.71462 C182.54,269.07662 183.025,307.76762 183.025,312.42862 C183.025,317.08862 185.129,356.13962 183.025,369.57062 C179.141,371.51262 175.743,369.57062 175.743,369.57062 C175.905,359.21362 169.82,320.39062 169.432,317.28362 C169.043,314.17662 162.311,289.93462 158.751,282.32862 C157.78,287.02162 155.353,312.23462 155.353,317.28362 C155.353,322.33262 147.909,352.39962 144.187,366.80162 C139.818,368.59962 136.905,366.80162 136.905,366.80162 C136.743,354.50362 139.429,327.38162 139.818,317.28362 Z" id="Shape" fill="#3C56C6" fill-rule="nonzero"></path>
                <path d="M136.905,165.03062 C137.228,164.05962 138.555,161.72962 141.274,160.17562 C144.672,158.23362 150.984,157.74862 152.44,160.17562 C153.439,161.84062 153.411,163.57362 150.984,165.03062 C148.739,166.37762 140.683,168.55462 140.25,169.64162 C140.466,169.97462 140.517,170.09862 140.303,169.88562 C140.23,169.81162 140.215,169.73062 140.25,169.64162 C139.68,168.76462 137.961,166.43862 136.905,165.03062 Z" id="Shape" fill="#FFE0F5" fill-rule="nonzero"></path>
                <path d="M207.784,269.41062 C208.096,270.39762 209.372,272.76662 211.986,274.34662 C215.254,276.32162 221.324,276.81462 222.724,274.34662 C223.685,272.65362 223.658,270.89162 221.324,269.41062 C219.165,268.04062 211.418,265.82762 211.001,264.72062 C211.209,264.38262 211.258,264.25662 211.053,264.47362 C210.982,264.54862 210.967,264.63062 211.001,264.72062 C210.454,265.61262 208.8,267.97862 207.784,269.41062 Z" id="Shape" fill="#FFE0F5" fill-rule="nonzero"></path>
                <path d="M150.498,186.68962 L150.498,195.91362 C151.631,196.39962 152.925,197.37062 156.809,197.37062 C160.693,197.37062 162.311,196.39962 163.12,195.91362 L161.664,191.54462 C161.988,191.22062 161.761,191.54462 164.091,191.54462 C166.422,191.54462 169.672,185.81562 169.432,181.20562 C169.309,178.86362 168.461,178.82462 168.461,174.55262 C168.461,163.87262 163.12,159.01762 155.838,159.01762 C148.556,159.01762 147.1,170.66862 147.1,173.09662 C147.1,175.52362 150.498,182.80562 150.498,186.68962 Z" id="Shape" fill="#FFE0F5" fill-rule="nonzero"></path>
                <path d="M157.295,189.11762 C154.964,189.89362 152.764,190.75362 150.984,190.42962 C149.527,190.42962 148.855,184.06262 147.585,181.20562 C145.643,176.83662 145.643,172.61062 145.643,169.69762 C145.643,166.78562 147.1,157.41662 157.295,157.41662 C165.451,157.41662 163.12,159.35862 172.345,157.41662 C173.801,165.67062 170.111,171.10762 167.004,171.49562 C163.897,171.88462 161.179,177.32162 160.693,178.77862 C159.285,183.00362 159.625,188.34062 157.295,189.11762 Z" id="Shape" fill="#F9759C" fill-rule="nonzero"></path>
                <path d="M107.776,192.51562 C107.776,204.65262 128.004,209.84862 138.361,219.07262 C138.361,219.07262 139.547,231.46862 139.818,237.52062 C140.194,245.92962 138.361,259.02562 138.361,259.02562 C140.789,269.22062 148.653,270.19162 158.751,270.19162 C168.849,270.19162 177.199,259.51162 179.627,259.02562 C178.656,251.09662 174.966,229.07362 175.743,230.23862 C176.714,231.69462 182.981,244.23762 190.307,253.68562 C195.976,260.99662 203.901,267.76462 207.299,270.19162 L212.154,265.33762 C212.154,265.33762 197.767,247.27362 194.677,240.57762 C188.851,227.95562 186.132,215.42962 183.025,208.05062 C179.918,200.67162 168.137,196.23762 163.606,195.42862 C163.606,195.42862 156.324,198.34162 150.498,195.42862 C137.876,199.16762 130.92,193.77462 122.34,190.91462 C123.311,186.54562 142.245,169.69762 142.245,169.69762 L137.876,163.38662 C137.876,163.38662 107.776,181.34962 107.776,192.51562 Z" id="Shape" fill="#6386FF" fill-rule="nonzero"></path>
                <path d="M142.245,373.59862 C139.818,374.91062 136.905,373.59862 136.905,373.59862 C136.419,375.86462 135.448,380.58962 135.448,381.36662 C135.448,382.33762 134.963,384.76462 143.701,384.76462 C152.44,384.76462 152.44,382.82262 152.44,381.36662 C152.44,379.90962 151.469,378.45362 148.071,378.45362 C145.352,378.45362 144.025,375.21662 142.245,373.59862 Z" id="Shape" fill="#B2C3FF" fill-rule="nonzero"></path>
                <path d="M181.715,376.95662 C179.627,378.30962 177.433,377.32562 177.433,377.32562 C176.931,379.85362 176.061,385.19462 176.591,386.34162 C177.254,387.77562 183.72,387.71562 186.397,387.48462 C189.074,387.25462 197.104,386.56262 196.934,384.58962 C196.764,382.61662 193.425,381.41362 190.748,381.64462 C188.607,381.82862 183.834,378.59662 181.715,376.95662 Z" id="Shape" fill="#B2C3FF" fill-rule="nonzero"></path>
                <path d="M205.958,135.90662 C212.703,132.73862 245.799,124.69062 259.127,123.64662 C272.617,122.59162 273.654,162.37862 259.127,163.96162 C251.32,164.81362 222.042,170.74862 212.703,173.38862 C203.363,176.02762 195.827,167.75462 194.543,158.60662 C192.467,143.82562 199.999,138.70462 205.958,135.90662 Z" id="Shape" fill="#FFCFCB" fill-rule="nonzero"></path>
                <path d="M421.179,28.99262 C409.545,31.24762 301.351,55.42662 241.708,68.46062 C237.113,69.46462 233.872,73.52462 233.872,78.22762 L233.872,220.86862 C233.872,227.25362 239.774,232.00362 246.011,230.63762 L423.722,191.72162 C428.3,190.71962 431.567,186.67262 431.583,181.98662 L432.075,34.27162 C432.075,31.10462 432.075,26.88062 421.179,28.99262 Z" id="Shape" fill="url(#linearGradient-11)" fill-rule="nonzero"></path>
                <path d="M301.967,241.21462 L301.967,95.01762 C301.967,91.04562 304.276,87.46862 307.919,85.88562 C326.447,77.83162 384.373,52.81462 426.512,36.39562 C431.941,34.28062 432.493,33.75262 432.493,33.75262 C432.493,37.93562 432.92,159.79762 433.024056,189.21162 C433.037,193.10462 430.79,196.61062 427.265,198.26162 L316.208,250.27062 C309.577,253.37562 301.967,248.53662 301.967,241.21462 Z" id="Shape" fill="url(#linearGradient-12)" fill-rule="nonzero"></path>
            </g>
        </g>
    </g>
</svg>