<?xml version="1.0" encoding="UTF-8"?>
<svg width="364px" height="58px" viewBox="0 0 364 58" version="1.1" xmlns="http://www.w3.org/2000/svg" xmlns:xlink="http://www.w3.org/1999/xlink">
    <title>logo</title>
    <g id="Page-1" stroke="none" stroke-width="1" fill="none" fill-rule="evenodd">
        <g id="Colour-1" transform="translate(-244.000000, -422.000000)">
            <g id="logo" transform="translate(243.995605, 422.461426)">
                <path d="M17.8173828,55.9726562 C23.5826823,55.9726562 27.9573568,54.7631022 30.9414062,52.3439941 C33.9254557,49.9248861 35.4174805,47.1653646 35.4174805,44.0654297 C35.4174805,41.9794922 34.7294108,40.0384115 33.3532715,38.2421875 C31.9771322,36.4459635 29.8839518,35.0408529 27.0737305,34.0268555 C25.1036784,33.331543 21.5836589,32.7086589 16.5136719,32.1582031 C12.6315104,31.7236328 9.99511719,31.1007487 8.60449219,30.2895508 C6.5764974,29.1306966 5.5625,27.6821289 5.5625,25.9438477 C5.5625,24.4083659 6.41715495,23.0177409 8.12646484,21.7719727 C10.3862305,20.1206055 13.5585938,19.2949219 17.6435547,19.2949219 C21.5546875,19.2949219 24.6980794,20.1061198 27.0737305,21.7285156 C28.6961263,22.8583984 29.5942383,24.2924805 29.7680664,26.0307617 C29.8260091,26.7550456 30.0215658,27.2765299 30.3547363,27.5952148 C30.6879069,27.9138997 31.1007487,28.0732422 31.5932617,28.0732422 C32.1437174,28.0732422 32.5927734,27.8849284 32.9404297,27.5083008 C33.2880859,27.1316732 33.4619141,26.5087891 33.4619141,25.6396484 L33.4619141,25.6396484 L33.4619141,19.3818359 C33.4619141,18.483724 33.2880859,17.8463542 32.9404297,17.4697266 C32.5927734,17.093099 32.1437174,16.9047852 31.5932617,16.9047852 C31.0717773,16.9047852 30.637207,17.093099 30.2895508,17.4697266 C29.9418945,17.8463542 29.7680664,18.4547526 29.7680664,19.2949219 C26.6101888,16.8323568 22.5107422,15.6010742 17.4697266,15.6010742 C13.2109375,15.6010742 9.5460612,16.5209147 6.47509766,18.3605957 C3.40413411,20.2002767 1.86865234,22.6845703 1.86865234,25.8134766 C1.86865234,27.5517578 2.41910807,29.1741536 3.52001953,30.6806641 C4.62093099,32.1871745 6.15641276,33.3170573 8.12646484,34.0703125 C10.0965169,34.8235677 13.3485514,35.4319661 17.8825684,35.8955078 C22.4165853,36.3590495 25.8714193,37.2716471 28.2470703,38.6333008 C30.59375,39.9949544 31.7670898,41.8056641 31.7670898,44.0654297 C31.7670898,46.0354818 30.6082357,47.9041341 28.2905273,49.6713867 C25.972819,51.4386393 22.4383138,52.3222656 17.6870117,52.3222656 C14.4711914,52.3222656 11.755127,51.8659668 9.53881836,50.9533691 C7.32250977,50.0407715 5.70735677,48.8891602 4.69335938,47.4985352 C4.02701823,46.6004232 3.69384766,45.485026 3.69384766,44.1523438 C3.69384766,43.5439453 3.51277669,43.0586751 3.15063477,42.6965332 C2.78849284,42.3343913 2.34667969,42.1533203 1.82519531,42.1533203 C1.27473958,42.1533203 0.832926432,42.3416341 0.499755859,42.7182617 C0.166585286,43.0948893 0,43.7177734 0,44.5869141 L0,44.5869141 L0,52.1049805 C0,52.9741211 0.173828125,53.5970052 0.521484375,53.9736328 C0.869140625,54.3502604 1.30371094,54.5385742 1.82519531,54.5385742 C2.20182292,54.5385742 2.54223633,54.4371745 2.84643555,54.234375 C3.15063477,54.0315755 3.36067708,53.785319 3.4765625,53.4956055 C3.59244792,53.2058919 3.65039062,52.5685221 3.65039062,51.5834961 C7.3297526,54.5096029 12.0520833,55.9726562 17.8173828,55.9726562 Z M71.9213867,55.9726562 C75.6586914,55.9726562 79.3018392,55.3425293 82.8508301,54.0822754 C86.399821,52.8220215 88.8696289,51.4676107 90.2602539,50.019043 C90.7237956,49.5555013 90.9555664,49.077474 90.9555664,48.5849609 C90.9555664,48.0924479 90.7817383,47.6651204 90.434082,47.3029785 C90.0864258,46.9408366 89.6808268,46.7597656 89.2172852,46.7597656 C88.8116862,46.7597656 88.3336589,46.9770508 87.7832031,47.4116211 C85.9000651,48.8891602 83.4664714,50.0769857 80.4824219,50.9750977 C77.4983724,51.8732096 74.644694,52.3222656 71.9213867,52.3222656 C67.0252279,52.3222656 62.9185384,50.8809408 59.6013184,47.998291 C56.2840983,45.1156413 54.3068034,41.313151 53.6694336,36.5908203 L53.6694336,36.5908203 L90.8686523,36.5908203 C90.9265951,30.3909505 89.0289714,25.3426921 85.1757812,21.4460449 C81.3225911,17.5493978 76.4119466,15.6010742 70.4438477,15.6010742 C64.6495768,15.6010742 59.7896322,17.4986979 55.8640137,21.2939453 C51.9383952,25.0891927 49.9755859,29.6376953 49.9755859,34.9394531 C49.9755859,40.7626953 52.0687663,45.7240397 56.255127,49.8234863 C60.4414876,53.9229329 65.6635742,55.9726562 71.9213867,55.9726562 Z M87.1748047,32.8969727 L53.7128906,32.8969727 C54.4661458,28.8120117 56.3782552,25.523763 59.4492188,23.0322266 C62.5201823,20.5406901 66.1850586,19.2949219 70.4438477,19.2949219 C74.7026367,19.2949219 78.3747559,20.5551758 81.4602051,23.0756836 C84.5456543,25.5961914 86.4505208,28.8699544 87.1748047,32.8969727 L87.1748047,32.8969727 Z M125.330078,55.9726562 C129.067383,55.9726562 132.710531,55.3425293 136.259521,54.0822754 C139.808512,52.8220215 142.27832,51.4676107 143.668945,50.019043 C144.132487,49.5555013 144.364258,49.077474 144.364258,48.5849609 C144.364258,48.0924479 144.19043,47.6651204 143.842773,47.3029785 C143.495117,46.9408366 143.089518,46.7597656 142.625977,46.7597656 C142.220378,46.7597656 141.74235,46.9770508 141.191895,47.4116211 C139.308757,48.8891602 136.875163,50.0769857 133.891113,50.9750977 C130.907064,51.8732096 128.053385,52.3222656 125.330078,52.3222656 C120.433919,52.3222656 116.32723,50.8809408 113.01001,47.998291 C109.69279,45.1156413 107.715495,41.313151 107.078125,36.5908203 L107.078125,36.5908203 L144.277344,36.5908203 C144.335286,30.3909505 142.437663,25.3426921 138.584473,21.4460449 C134.731283,17.5493978 129.820638,15.6010742 123.852539,15.6010742 C118.058268,15.6010742 113.198324,17.4986979 109.272705,21.2939453 C105.347087,25.0891927 103.384277,29.6376953 103.384277,34.9394531 C103.384277,40.7626953 105.477458,45.7240397 109.663818,49.8234863 C113.850179,53.9229329 119.072266,55.9726562 125.330078,55.9726562 Z M140.583496,32.8969727 L107.121582,32.8969727 C107.874837,28.8120117 109.786947,25.523763 112.85791,23.0322266 C115.928874,20.5406901 119.59375,19.2949219 123.852539,19.2949219 C128.111328,19.2949219 131.783447,20.5551758 134.868896,23.0756836 C137.954346,25.5961914 139.859212,28.8699544 140.583496,32.8969727 L140.583496,32.8969727 Z M176.000977,55.9726562 C182.519531,55.9726562 187.893717,53.0755208 192.123535,47.28125 L192.123535,47.28125 L192.123535,54.5385742 L200.68457,54.5385742 C201.582682,54.5385742 202.220052,54.3647461 202.59668,54.0170898 C202.973307,53.6694336 203.161621,53.2348633 203.161621,52.7133789 C203.161621,52.1629232 202.973307,51.72111 202.59668,51.3879395 C202.220052,51.0547689 201.582682,50.8881836 200.68457,50.8881836 L200.68457,50.8881836 L195.817383,50.8881836 L195.817383,0 L187.256348,0 C186.358236,0 185.720866,0.173828125 185.344238,0.521484375 C184.967611,0.869140625 184.779297,1.30371094 184.779297,1.82519531 C184.779297,2.37565104 184.967611,2.82470703 185.344238,3.17236328 C185.720866,3.52001953 186.358236,3.69384766 187.256348,3.69384766 L187.256348,3.69384766 L192.123535,3.69384766 L192.123535,24.2924805 C187.777832,18.4982096 182.418132,15.6010742 176.044434,15.6010742 C172.712728,15.6010742 169.533122,16.4847005 166.505615,18.2519531 C163.478109,20.0192057 161.087972,22.517985 159.335205,25.748291 C157.582438,28.978597 156.706055,32.3320312 156.706055,35.8085938 C156.706055,39.2561849 157.582438,42.6023763 159.335205,45.847168 C161.087972,49.0919596 163.478109,51.5907389 166.505615,53.3435059 C169.533122,55.0962728 172.698242,55.9726562 176.000977,55.9726562 Z M176.261719,52.3222656 C171.916016,52.3222656 168.178711,50.7215983 165.049805,47.5202637 C161.920898,44.318929 160.356445,40.4150391 160.356445,35.8085938 C160.356445,31.1731771 161.920898,27.2620443 165.049805,24.0751953 C168.178711,20.8883464 171.916016,19.2949219 176.261719,19.2949219 C180.578451,19.2949219 184.30127,20.8883464 187.430176,24.0751953 C190.559082,27.2620443 192.123535,31.1731771 192.123535,35.8085938 C192.123535,40.4150391 190.559082,44.318929 187.430176,47.5202637 C184.30127,50.7215983 180.578451,52.3222656 176.261719,52.3222656 Z M232.147461,55.9726562 C235.884766,55.9726562 239.527913,55.3425293 243.076904,54.0822754 C246.625895,52.8220215 249.095703,51.4676107 250.486328,50.019043 C250.94987,49.5555013 251.181641,49.077474 251.181641,48.5849609 C251.181641,48.0924479 251.007812,47.6651204 250.660156,47.3029785 C250.3125,46.9408366 249.906901,46.7597656 249.443359,46.7597656 C249.03776,46.7597656 248.559733,46.9770508 248.009277,47.4116211 C246.126139,48.8891602 243.692546,50.0769857 240.708496,50.9750977 C237.724447,51.8732096 234.870768,52.3222656 232.147461,52.3222656 C227.251302,52.3222656 223.144613,50.8809408 219.827393,47.998291 C216.510173,45.1156413 214.532878,41.313151 213.895508,36.5908203 L213.895508,36.5908203 L251.094727,36.5908203 C251.152669,30.3909505 249.255046,25.3426921 245.401855,21.4460449 C241.548665,17.5493978 236.638021,15.6010742 230.669922,15.6010742 C224.875651,15.6010742 220.015706,17.4986979 216.090088,21.2939453 C212.164469,25.0891927 210.20166,29.6376953 210.20166,34.9394531 C210.20166,40.7626953 212.29484,45.7240397 216.481201,49.8234863 C220.667562,53.9229329 225.889648,55.9726562 232.147461,55.9726562 Z M247.400879,32.8969727 L213.938965,32.8969727 C214.69222,28.8120117 216.604329,25.523763 219.675293,23.0322266 C222.746257,20.5406901 226.411133,19.2949219 230.669922,19.2949219 C234.928711,19.2949219 238.60083,20.5551758 241.686279,23.0756836 C244.771729,25.5961914 246.676595,28.8699544 247.400879,32.8969727 L247.400879,32.8969727 Z M282.818359,55.9726562 C289.336914,55.9726562 294.7111,53.0755208 298.940918,47.28125 L298.940918,47.28125 L298.940918,54.5385742 L307.501953,54.5385742 C308.400065,54.5385742 309.037435,54.3647461 309.414062,54.0170898 C309.79069,53.6694336 309.979004,53.2348633 309.979004,52.7133789 C309.979004,52.1629232 309.79069,51.72111 309.414062,51.3879395 C309.037435,51.0547689 308.400065,50.8881836 307.501953,50.8881836 L307.501953,50.8881836 L302.634766,50.8881836 L302.634766,0 L294.07373,0 C293.175618,0 292.538249,0.173828125 292.161621,0.521484375 C291.784993,0.869140625 291.59668,1.30371094 291.59668,1.82519531 C291.59668,2.37565104 291.784993,2.82470703 292.161621,3.17236328 C292.538249,3.52001953 293.175618,3.69384766 294.07373,3.69384766 L294.07373,3.69384766 L298.940918,3.69384766 L298.940918,24.2924805 C294.595215,18.4982096 289.235514,15.6010742 282.861816,15.6010742 C279.530111,15.6010742 276.350505,16.4847005 273.322998,18.2519531 C270.295492,20.0192057 267.905355,22.517985 266.152588,25.748291 C264.399821,28.978597 263.523438,32.3320312 263.523438,35.8085938 C263.523438,39.2561849 264.399821,42.6023763 266.152588,45.847168 C267.905355,49.0919596 270.295492,51.5907389 273.322998,53.3435059 C276.350505,55.0962728 279.515625,55.9726562 282.818359,55.9726562 Z M283.079102,52.3222656 C278.733398,52.3222656 274.996094,50.7215983 271.867188,47.5202637 C268.738281,44.318929 267.173828,40.4150391 267.173828,35.8085938 C267.173828,31.1731771 268.738281,27.2620443 271.867188,24.0751953 C274.996094,20.8883464 278.733398,19.2949219 283.079102,19.2949219 C287.395833,19.2949219 291.118652,20.8883464 294.247559,24.0751953 C297.376465,27.2620443 298.940918,31.1731771 298.940918,35.8085938 C298.940918,40.4150391 297.376465,44.318929 294.247559,47.5202637 C291.118652,50.7215983 287.395833,52.3222656 283.079102,52.3222656 Z" id="seeded" fill="#EA5559" fill-rule="nonzero"></path>
                <path d="M323.473145,56.5385742 C325.941167,56.5385742 327.941895,54.5378467 327.941895,52.0698242 C327.941895,49.6018017 325.941167,43.5385742 323.473145,43.5385742 C321.005122,43.5385742 319.004395,49.6018017 319.004395,52.0698242 C319.004395,54.5378467 321.005122,56.5385742 323.473145,56.5385742 Z" id="oval" fill="#CDAC89"></path>
                <path d="M341.473145,56.5385742 C343.941167,56.5385742 345.941895,54.5378467 345.941895,52.0698242 C345.941895,49.6018017 343.941167,43.5385742 341.473145,43.5385742 C339.005122,43.5385742 337.004395,49.6018017 337.004395,52.0698242 C337.004395,54.5378467 339.005122,56.5385742 341.473145,56.5385742 Z" id="oval" fill="#CDAC89"></path>
                <path d="M359.473145,56.5385742 C361.941167,56.5385742 363.941895,54.5378467 363.941895,52.0698242 C363.941895,49.6018017 361.941167,43.5385742 359.473145,43.5385742 C357.005122,43.5385742 355.004395,49.6018017 355.004395,52.0698242 C355.004395,54.5378467 357.005122,56.5385742 359.473145,56.5385742 Z" id="oval" fill="#CDAC89"></path>
            </g>
        </g>
    </g>
</svg>