<?xml version="1.0" encoding="UTF-8"?>
<svg width="32px" height="32px" viewBox="0 0 32 32" version="1.1" xmlns="http://www.w3.org/2000/svg" xmlns:xlink="http://www.w3.org/1999/xlink">
    <title>magnifying</title>
    <defs>
        <filter id="filter-1">
            <feColorMatrix in="SourceGraphic" type="matrix" values="0 0 0 0 1.000000 0 0 0 0 1.000000 0 0 0 0 1.000000 0 0 0 1.000000 0"></feColorMatrix>
        </filter>
    </defs>
    <g id="Page-1" stroke="none" stroke-width="1" fill="none" fill-rule="evenodd">
        <g id="magnifying" transform="translate(-60.000000, -600.000000)" filter="url(#filter-1)">
            <g transform="translate(60.000000, 600.000000)">
                <rect id="bound" x="0" y="0" width="32" height="32"></rect>
                <path d="M19.057191,22.2761424 C18.5364919,21.7554433 18.5364919,20.9112233 19.057191,20.3905243 C19.57789,19.8698252 20.42211,19.8698252 20.942809,20.3905243 L26.2761424,25.7238576 C26.7968414,26.2445567 26.7968414,27.0887767 26.2761424,27.6094757 C25.7554433,28.1301748 24.9112233,28.1301748 24.3905243,27.6094757 L19.057191,22.2761424 Z" id="Path-2" fill="#000000" fill-rule="nonzero" opacity="0.6"></path>
                <path d="M14.6666667,21.3333333 C18.348565,21.3333333 21.3333333,18.348565 21.3333333,14.6666667 C21.3333333,10.9847683 18.348565,8 14.6666667,8 C10.9847683,8 8,10.9847683 8,14.6666667 C8,18.348565 10.9847683,21.3333333 14.6666667,21.3333333 Z M14.6666667,24 C9.512009,24 5.33333333,19.8213243 5.33333333,14.6666667 C5.33333333,9.512009 9.512009,5.33333333 14.6666667,5.33333333 C19.8213243,5.33333333 24,9.512009 24,14.6666667 C24,19.8213243 19.8213243,24 14.6666667,24 Z" id="Path" fill="#000000" fill-rule="nonzero"></path>
            </g>
        </g>
    </g>
</svg>