<?xml version="1.0" encoding="UTF-8"?>
<svg width="73px" height="87px" viewBox="0 0 73 87" version="1.1" xmlns="http://www.w3.org/2000/svg" xmlns:xlink="http://www.w3.org/1999/xlink">
    <title>map-sitter</title>
    <defs>
        <filter id="filter-1">
            <feColorMatrix in="SourceGraphic" type="matrix" values="0 0 0 0 1.000000 0 0 0 0 1.000000 0 0 0 0 1.000000 0 0 0 1.000000 0"></feColorMatrix>
        </filter>
    </defs>
    <g id="Page-1" stroke="none" stroke-width="1" fill="none" fill-rule="evenodd">
        <g id="Artboard" transform="translate(-915.000000, -605.000000)">
            <g id="map-sitter" transform="translate(915.000000, 605.000000)">
                <path d="M0,36.3992238 C0,50.7628652 11.8412211,67.4882122 35.5236634,86.5752647 L35.523658,86.5752714 C36.0886482,87.0306297 36.8985809,87.0162602 37.447063,86.5411472 C61.149021,66.0097415 73,49.2957671 73,36.3992238 C73,16.7984476 58.4,-1.32160949e-12 36.5,-1.32160949e-12 C14.6,-1.32160949e-12 0,14.5596895 0,36.3992238 Z" id="Combined-Shape" fill="#505168"></path>
                <g filter="url(#filter-1)" id="Stockholm-Icons-/-Black-/-Home-/-Chair#2">
                    <g transform="translate(16.000000, 18.000000)">
                        <rect id="bound" x="0" y="0" width="40" height="40"></rect>
                        <path d="M15.0656121,24.8906385 L16.301329,25.2201701 C16.8349651,25.3624761 17.1522008,25.9104354 17.0098947,26.4440715 C17.0096896,26.4448407 17.0094836,26.4456096 17.0092766,26.4463783 L14.059375,37.4031026 C13.9160374,37.935497 13.3688269,38.2514273 12.8360917,38.1093615 L11.6003748,37.7798299 C11.0667387,37.6375239 10.7495031,37.0895646 10.8918091,36.5559285 L10.8924272,36.5536217 L13.8423288,25.5968974 C13.9856664,25.064503 14.532877,24.7485727 15.0656121,24.8906385 Z M25.4186213,26.6396746 C25.9513564,26.4976088 26.498567,26.8135392 26.6419046,27.3459335 L26.6419046,27.3459335 L29.1075728,36.5040854 C29.1077798,36.5048541 29.1079858,36.505623 29.1081909,36.5063922 C29.2504969,37.0400282 28.9332613,37.5879876 28.3996252,37.7302936 L28.3996252,37.7302936 L27.1639083,38.0598252 C26.6311731,38.201891 26.0839626,37.8859606 25.940625,37.3535663 L25.940625,37.3535663 L23.4749568,28.1954144 C23.4747498,28.1946457 23.4745438,28.1938768 23.4743386,28.1931076 C23.3320326,27.6594716 23.6492683,27.1115122 24.1829044,26.9692062 L24.1829044,26.9692062 Z" id="Combined-Shape" fill="#000000" opacity="0.6"></path>
                        <path d="M32.5,23.9375 C33.3284271,23.9375 34,24.6090729 34,25.4375 L34,27.5 C34,28.3284271 33.3284271,29 32.5,29 L8.5,29 C7.67157288,29 7,28.3284271 7,27.5 L7,25.4375 C7,24.6090729 7.67157288,23.9375 8.5,23.9375 L32.5,23.9375 Z M29.9515792,2 C31.0561487,2 31.9515792,2.8954305 31.9515792,4 C31.9515792,4.11016172 31.9424775,4.22013512 31.924367,4.32879797 L29.0071334,21.8321995 C28.9669511,22.0732935 28.758356,22.25 28.5139365,22.25 L12.4860635,22.25 C12.241644,22.25 12.0330489,22.0732935 11.9928666,21.8321995 L9.075633,4.32879797 C8.89404289,3.23925733 9.63008223,2.20880226 10.7196229,2.02721215 C10.8282857,2.00910168 10.9382591,2 11.0484208,2 L29.9515792,2 Z" id="Combined-Shape" fill="#000000"></path>
                    </g>
                </g>
            </g>
        </g>
    </g>
</svg>