<?xml version="1.0" encoding="UTF-8"?>
<svg width="73px" height="87px" viewBox="0 0 73 87" version="1.1" xmlns="http://www.w3.org/2000/svg" xmlns:xlink="http://www.w3.org/1999/xlink">
    <title>map-owner</title>
    <defs>
        <filter id="filter-1">
            <feColorMatrix in="SourceGraphic" type="matrix" values="0 0 0 0 1.000000 0 0 0 0 1.000000 0 0 0 0 1.000000 0 0 0 1.000000 0"></feColorMatrix>
        </filter>
    </defs>
    <g id="Page-1" stroke="none" stroke-width="1" fill="none" fill-rule="evenodd">
        <g id="Artboard" transform="translate(-1038.000000, -605.000000)">
            <g id="map-owner" transform="translate(1038.000000, 605.000000)">
                <path d="M0,36.3992238 C0,50.7692191 11.8516996,67.5030098 35.5550987,86.600596 L35.5550809,86.600618 C36.1061292,87.044592 36.8925088,87.0430639 37.4418275,86.5969519 C61.1472758,67.3453112 73,50.6127352 73,36.3992238 C73,14.7984476 58.4,-6.89226454e-13 36.5,-6.89226454e-13 C14.6,-6.89226454e-13 0,14.5596895 0,36.3992238 Z" id="Combined-Shape-Copy" fill="#505168"></path>
                <g filter="url(#filter-1)" id="Stockholm-Icons-/-Black-/-Home-/-Flower#1">
                    <g transform="translate(17.000000, 16.000000)">
                        <polygon id="bound" points="0 0 40 0 40 40 0 40"></polygon>
                        <path d="M15,1.66666667 C8.20601852,13.0487805 8.20601852,21.3821138 15,26.6666667 C21.5162037,21.3821138 21.5162037,13.0487805 15,1.66666667 Z" id="Path-36-Copy-2" fill="#000000" opacity="0.6" transform="translate(14.895833, 14.166667) scale(-1, 1) rotate(-330.000000) translate(-14.895833, -14.166667) "></path>
                        <path d="M25,1.66666667 C18.2060185,13.0487805 18.2060185,21.3821138 25,26.6666667 C31.5162037,21.3821138 31.5162037,13.0487805 25,1.66666667 Z" id="Path-36-Copy-3" fill="#000000" opacity="0.6" transform="translate(24.895833, 14.166667) rotate(-330.000000) translate(-24.895833, -14.166667) "></path>
                        <path d="M20.1043478,2 C13.2985507,13.3821138 13.2985507,21.7154472 20.1043478,27 C26.6318841,21.7154472 26.6318841,13.3821138 20.1043478,2 Z" id="Path-36" fill="#000000" opacity="0.6"></path>
                        <path d="M9.31484478,22 L29.6859809,22 C30.2382656,22 30.6859809,22.4477153 30.6859809,23 C30.6859809,23.0943504 30.6726282,23.1882261 30.64632,23.2788345 L26.5004604,37.557669 C26.2523568,38.4121674 25.4695702,39 24.579782,39 L14.4210436,39 C13.5312555,39 12.7484689,38.4121674 12.5003652,37.557669 L8.3545056,23.2788345 C8.20050957,22.7484538 8.50562961,22.1936569 9.03601029,22.0396608 C9.1266187,22.0133527 9.22049435,22 9.31484478,22 Z" id="Rectangle-71" fill="#000000"></path>
                    </g>
                </g>
            </g>
        </g>
    </g>
</svg>