<?xml version="1.0" encoding="UTF-8"?>
<svg width="32px" height="32px" viewBox="0 0 32 32" version="1.1" xmlns="http://www.w3.org/2000/svg" xmlns:xlink="http://www.w3.org/1999/xlink">
    <title>map</title>
    <defs>
        <filter id="filter-1">
            <feColorMatrix in="SourceGraphic" type="matrix" values="0 0 0 0 1.000000 0 0 0 0 1.000000 0 0 0 0 1.000000 0 0 0 1.000000 0"></feColorMatrix>
        </filter>
    </defs>
    <g id="Page-1" stroke="none" stroke-width="1" fill="none" fill-rule="evenodd">
        <g id="map" transform="translate(-60.000000, -750.000000)" filter="url(#filter-1)">
            <g transform="translate(60.000000, 750.000000)">
                <rect id="bound" x="0" y="0" width="32" height="32"></rect>
                <path d="M16.6666667,4 C22.6666667,4 26.6666667,9 26.6666667,14 C26.6666667,17.1685381 23.6547765,21.5418323 17.6309963,27.1198825 C17.0780077,27.6319527 16.2309159,27.6541811 15.6518325,27.1718174 L15.6518325,27.1718174 L15.2654055,26.847274 C9.53291295,21.9916001 6.66666667,17.7091754 6.66666667,14 C6.66666667,8 10.6666667,4 16.6666667,4 Z M16.6666667,9.33333333 C14.8257175,9.33333333 13.3333333,10.8257175 13.3333333,12.6666667 C13.3333333,14.5076158 14.8257175,16 16.6666667,16 C18.5076158,16 20,14.5076158 20,12.6666667 C20,10.8257175 18.5076158,9.33333333 16.6666667,9.33333333 Z" id="Combined-Shape" fill="#000000" fill-rule="nonzero"></path>
            </g>
        </g>
    </g>
</svg>