<?xml version="1.0" encoding="UTF-8"?>
<svg width="24px" height="24px" viewBox="0 0 24 24" version="1.1" xmlns="http://www.w3.org/2000/svg" xmlns:xlink="http://www.w3.org/1999/xlink">
    <title>nav-messages</title>
    <defs>
        <filter id="filter-1">
            <feColorMatrix in="SourceGraphic" type="matrix" values="0 0 0 0 0.803922 0 0 0 0 0.674510 0 0 0 0 0.537255 0 0 0 1.000000 0"></feColorMatrix>
        </filter>
    </defs>
    <g id="Page-1" stroke="none" stroke-width="1" fill="none" fill-rule="evenodd">
        <g id="nav-messages" transform="translate(-75.000000, -471.000000)" filter="url(#filter-1)">
            <g transform="translate(75.000000, 471.000000)">
                <rect id="bound" x="0" y="0" width="24" height="24"></rect>
                <path d="M22,15.01 L22.0249378,15 L22.0249378,19.5857864 C22.0249378,20.1380712 21.5772226,20.5857864 21.0249378,20.5857864 C20.7597213,20.5857864 20.5053674,20.4804296 20.317831,20.2928932 L18.025,18 L6,18 C4.34314575,18 3,16.6568542 3,15 L3,6 C3,4.34314575 4.34314575,3 6,3 L19,3 C20.6568542,3 22,4.34314575 22,6 L22,15.01 Z" id="Combined-Shape" fill="#000000" opacity="0.6"></path>
                <path d="M7.5,12 C6.67157288,12 6,11.3284271 6,10.5 C6,9.67157288 6.67157288,9 7.5,9 C8.32842712,9 9,9.67157288 9,10.5 C9,11.3284271 8.32842712,12 7.5,12 Z M12.5,12 C11.6715729,12 11,11.3284271 11,10.5 C11,9.67157288 11.6715729,9 12.5,9 C13.3284271,9 14,9.67157288 14,10.5 C14,11.3284271 13.3284271,12 12.5,12 Z M17.5,12 C16.6715729,12 16,11.3284271 16,10.5 C16,9.67157288 16.6715729,9 17.5,9 C18.3284271,9 19,9.67157288 19,10.5 C19,11.3284271 18.3284271,12 17.5,12 Z" id="Combined-Shape" fill="#000000" opacity="0.9"></path>
            </g>
        </g>
    </g>
</svg>