<?xml version="1.0" encoding="UTF-8"?>
<svg width="32px" height="32px" viewBox="0 0 32 32" version="1.1" xmlns="http://www.w3.org/2000/svg" xmlns:xlink="http://www.w3.org/1999/xlink">
    <title>pinboard</title>
    <defs>
        <filter id="filter-1">
            <feColorMatrix in="SourceGraphic" type="matrix" values="0 0 0 0 1.000000 0 0 0 0 1.000000 0 0 0 0 1.000000 0 0 0 1.000000 0"></feColorMatrix>
        </filter>
    </defs>
    <g id="Page-1" stroke="none" stroke-width="1" fill="none" fill-rule="evenodd">
        <g id="pinboard" transform="translate(-60.000000, -1038.000000)" filter="url(#filter-1)">
            <g transform="translate(60.000000, 1038.000000)">
                <rect id="bound" x="0" y="0" width="32" height="32"></rect>
                <path d="M24.6666667,4 C25.7712362,4 26.6666667,4.8954305 26.6666667,6 L26.6666667,28.6666667 C26.6666667,29.7712362 25.7712362,30.6666667 24.6666667,30.6666667 L7.33333333,30.6666667 C6.22876383,30.6666667 5.33333333,29.7712362 5.33333333,28.6666667 L5.33333333,6 C5.33333333,4.8954305 6.22876383,4 7.33333333,4 L10.6663333,4 L10.6666667,4.66666667 C10.6666667,5.72102846 11.4825445,6.58483179 12.5174043,6.66118093 L12.6666667,6.66666667 L19.3333333,6.66666667 C20.4379028,6.66666667 21.3333333,5.77123617 21.3333333,4.66666667 L21.3333333,4.66666667 L21.3333333,4 L24.6666667,4 Z" id="Combined-Shape" fill="#000000" opacity="0.4"></path>
                <path d="M14.5,21 C14.1805556,21 13.8611111,20.8722222 13.6055556,20.6166667 L11.05,18.0611111 C10.5388889,17.55 10.5388889,16.7833333 11.05,16.2722222 C11.5611111,15.7611111 12.3916667,15.7611111 12.8388889,16.2722222 L14.5,17.9333333 L18.7166667,13.7166667 C19.2277778,13.2055556 19.9944444,13.2055556 20.5055556,13.7166667 C21.0166667,14.2277778 21.0166667,14.9944444 20.5055556,15.5055556 L15.3944444,20.6166667 C15.1388889,20.8722222 14.8194444,21 14.5,21 Z" id="check-path" fill="#000000"></path>
                <path d="M16,1.33333333 C16.7363797,1.33333333 17.3333333,1.930287 17.3333333,2.66666667 L17.3333333,2.66666667 L19.5,2.66666667 C19.7761424,2.66666667 20,2.89052429 20,3.16666667 L20,4.83333333 C20,5.10947571 19.7761424,5.33333333 19.5,5.33333333 L12.5,5.33333333 C12.2238576,5.33333333 12,5.10947571 12,4.83333333 L12,3.16666667 C12,2.89052429 12.2238576,2.66666667 12.5,2.66666667 L14.6666667,2.66666667 C14.6666667,1.930287 15.2636203,1.33333333 16,1.33333333 Z" id="Combined-Shape" fill="#000000"></path>
            </g>
        </g>
    </g>
</svg>