<?xml version="1.0" encoding="UTF-8"?>
<svg width="32px" height="32px" viewBox="0 0 32 32" version="1.1" xmlns="http://www.w3.org/2000/svg" xmlns:xlink="http://www.w3.org/1999/xlink">
    <title>flowerpot-gren</title>
    <defs>
        <filter id="filter-1">
            <feColorMatrix in="SourceGraphic" type="matrix" values="0 0 0 0 0.505882 0 0 0 0 0.588235 0 0 0 0 0.403922 0 0 0 1.000000 0"></feColorMatrix>
        </filter>
    </defs>
    <g id="Page-1" stroke="none" stroke-width="1" fill="none" fill-rule="evenodd">
        <g id="flowerpot-gren" transform="translate(-111.000000, -225.000000)" filter="url(#filter-1)">
            <g transform="translate(111.000000, 225.000000)">
                <polygon id="bound" points="0 0 32 0 32 32 0 32"></polygon>
                <path d="M12,1.33333333 C6.56481481,10.4390244 6.56481481,17.1056911 12,21.3333333 C17.212963,17.1056911 17.212963,10.4390244 12,1.33333333 Z" id="Path-36-Copy-2" fill="#000000" opacity="0.6" transform="translate(11.916667, 11.333333) scale(-1, 1) rotate(-330.000000) translate(-11.916667, -11.333333) "></path>
                <path d="M20,1.33333333 C14.5648148,10.4390244 14.5648148,17.1056911 20,21.3333333 C25.212963,17.1056911 25.212963,10.4390244 20,1.33333333 Z" id="Path-36-Copy-3" fill="#000000" opacity="0.6" transform="translate(19.916667, 11.333333) rotate(-330.000000) translate(-19.916667, -11.333333) "></path>
                <path d="M16,1.33333333 C10.5648148,10.4390244 10.5648148,17.1056911 16,21.3333333 C21.212963,17.1056911 21.212963,10.4390244 16,1.33333333 Z" id="Path-36" fill="#000000" opacity="0.6"></path>
                <path d="M8.01069732,17.3333333 L23.9893027,17.3333333 C24.5415874,17.3333333 24.9893027,17.7810486 24.9893027,18.3333333 C24.9893027,18.4306579 24.975095,18.5274612 24.947129,18.6206812 L21.7609246,29.2413624 C21.5071342,30.0873304 20.7284885,30.6666667 19.845272,30.6666667 L12.154728,30.6666667 C11.2715115,30.6666667 10.4928658,30.0873304 10.2390754,29.2413624 L7.05287103,18.6206812 C6.89417318,18.0916884 7.19435658,17.5342049 7.72334943,17.375507 C7.81656946,17.347541 7.91337275,17.3333333 8.01069732,17.3333333 Z" id="Rectangle-71" fill="#000000"></path>
            </g>
        </g>
    </g>
</svg>