<?xml version="1.0" encoding="UTF-8"?>
<svg width="24px" height="23px" viewBox="0 0 24 23" version="1.1" xmlns="http://www.w3.org/2000/svg" xmlns:xlink="http://www.w3.org/1999/xlink">
    <title>nav-settings</title>
    <defs>
        <filter id="filter-1">
            <feColorMatrix in="SourceGraphic" type="matrix" values="0 0 0 0 0.803922 0 0 0 0 0.674510 0 0 0 0 0.537255 0 0 0 1.000000 0"></feColorMatrix>
        </filter>
    </defs>
    <g id="Page-1" stroke="none" stroke-width="1" fill="none" fill-rule="evenodd">
        <g id="nav-settings" transform="translate(-75.000000, -534.000000)" filter="url(#filter-1)">
            <g transform="translate(75.000000, 534.000000)">
                <rect id="bound" x="0" y="0" width="24" height="23"></rect>
                <path d="M18.6225,9.34375 L18.75,9.34375 C19.9926407,9.34375 21,10.309136 21,11.5 C21,12.690864 19.9926407,13.65625 18.75,13.65625 L18.6854912,13.6562443 C18.4911876,13.6569869 18.3158978,13.768236 18.2393549,13.9393882 C18.1556809,14.1211817 18.1942911,14.3252501 18.3278301,14.456142 L18.372535,14.4989844 C18.7950334,14.9034284 19.03243,15.4522426 19.03243,16.0245313 C19.03243,16.5968199 18.7950334,17.1456341 18.373125,17.5495127 C17.9510964,17.954407 17.3784208,18.1819121 16.78125,18.1819121 C16.1840792,18.1819121 15.6114036,17.954407 15.1896699,17.5497955 L15.1505513,17.512245 C15.008087,17.3786956 14.7951461,17.3416942 14.6054486,17.4218818 C14.426855,17.4952354 14.310769,17.6632215 14.31,17.8465625 L14.31,17.96875 C14.31,19.159614 13.3026407,20.125 12.06,20.125 C10.8173593,20.125 9.81,19.159614 9.81,17.96875 C9.80552409,17.7290885 9.67898539,17.5595403 9.44717599,17.4763075 C9.26485393,17.3991942 9.05191298,17.4361956 8.91533009,17.5641705 L8.870625,17.6070127 C8.44859642,18.011907 7.87592081,18.2394121 7.27875,18.2394121 C6.68157919,18.2394121 6.10890358,18.011907 5.68746499,17.6075781 C5.26496665,17.2031341 5.02757002,16.6543199 5.02757002,16.0820312 C5.02757002,15.5097426 5.26496665,14.9609284 5.68716991,14.556767 L5.72635306,14.5192783 C5.86570889,14.3827501 5.90431906,14.1786817 5.82064513,13.9968882 C5.74410223,13.825736 5.56881236,13.7144869 5.3775,13.71375 L5.25,13.71375 C4.00735931,13.71375 3,12.748364 3,11.5575 C3,10.366636 4.00735931,9.40125 5.25,9.40125 C5.50008154,9.39696059 5.67700139,9.27569433 5.76385306,9.05354366 C5.84431906,8.87881835 5.80570889,8.67474994 5.67216991,8.543858 L5.62746499,8.50101562 C5.20496665,8.09657157 4.96757002,7.54775744 4.96757002,6.97546875 C4.96757002,6.40318006 5.20496665,5.85436593 5.626875,5.45048728 C6.04890358,5.04559304 6.62157919,4.81808793 7.21875,4.81808793 C7.81592081,4.81808793 8.38859642,5.04559304 8.81033009,5.4502045 L8.84944872,5.48775502 C8.99191298,5.62130435 9.20485393,5.65830577 9.38717599,5.58119252 L9.49484664,5.5594352 C9.65041313,5.478686 9.7492905,5.32259745 9.75,5.1534375 L9.75,5.03125 C9.75,3.84038601 10.7573593,2.875 12,2.875 C13.2426407,2.875 14.25,3.84038601 14.25,5.03125 L14.249994,5.0930709 C14.250769,5.27927851 14.366855,5.44726464 14.552824,5.52369252 C14.7351461,5.60080577 14.948087,5.56380435 15.0846699,5.4358295 L15.129375,5.39298728 C15.5514036,4.98809304 16.1240792,4.76058793 16.72125,4.76058793 C17.3184208,4.76058793 17.8910964,4.98809304 18.312535,5.39242187 C18.7350334,5.79686593 18.97243,6.34568006 18.97243,6.91796875 C18.97243,7.49025744 18.7350334,8.03907157 18.3128301,8.443233 L18.2736469,8.48072169 C18.1342911,8.61724994 18.0956809,8.82131835 18.1761469,8.99604366 L18.1988502,9.09922803 C18.2831103,9.24831259 18.4459853,9.34307006 18.6225,9.34375 Z" id="Combined-Shape" fill="#000000" fill-rule="nonzero" opacity="0.6"></path>
                <path d="M12,14.375 C13.6568542,14.375 15,13.0878187 15,11.5 C15,9.91218134 13.6568542,8.625 12,8.625 C10.3431458,8.625 9,9.91218134 9,11.5 C9,13.0878187 10.3431458,14.375 12,14.375 Z" id="Path" fill="#000000"></path>
            </g>
        </g>
    </g>
</svg>