<?xml version="1.0" encoding="UTF-8"?>
<svg width="579px" height="329px" viewBox="0 0 579 329" version="1.1" xmlns="http://www.w3.org/2000/svg" xmlns:xlink="http://www.w3.org/1999/xlink">
    <title>illustration-2</title>
    <defs>
        <linearGradient x1="149.790388%" y1="52.3377507%" x2="5.09355767%" y2="48.5961242%" id="linearGradient-1">
            <stop stop-color="#FFE9E7" offset="0%"></stop>
            <stop stop-color="#FFCECA" offset="100%"></stop>
        </linearGradient>
        <linearGradient x1="17.6862829%" y1="51.6559773%" x2="0%" y2="58.1324834%" id="linearGradient-2">
            <stop stop-color="#FFE9E7" offset="0%"></stop>
            <stop stop-color="#FFCECA" offset="100%"></stop>
        </linearGradient>
        <linearGradient x1="105.405684%" y1="43.0041076%" x2="11.7725391%" y2="53.5821164%" id="linearGradient-3">
            <stop stop-color="#FFE9E7" offset="0%"></stop>
            <stop stop-color="#FFCECA" offset="100%"></stop>
        </linearGradient>
        <linearGradient x1="5.20283168%" y1="32.0417246%" x2="1.5948151%" y2="56.6071568%" id="linearGradient-4">
            <stop stop-color="#FFE9E7" offset="0%"></stop>
            <stop stop-color="#FFCECA" offset="100%"></stop>
        </linearGradient>
    </defs>
    <g id="Page-1" stroke="none" stroke-width="1" fill="none" fill-rule="evenodd">
        <g id="Artboard" transform="translate(-103.000000, -681.000000)" fill-rule="nonzero">
            <g id="illustration-2" transform="translate(103.000000, 681.000000)">
                <g id="bg" transform="translate(3.000000, 7.000000)" fill="#FF9BB9" fill-opacity="0.1">
                    <path d="M569.42947,203.278 C569.034,267.079 521.848,304.9 465.437,317.614 C390.219,334.565 347.874,282.735 270.691,275.42 C193.977,268.149 0.317,327.906 0.317,173.683 C0.317,68.992 208.21,-1.305 270.691,0.642 C361.194,3.463 570.258,68.311 569.42947,203.278 Z" id="Shape"></path>
                </g>
                <g id="plane" transform="translate(108.000000, 146.000000)">
                    <path d="M174.366,108.812 C176.186,104.965 182.713,103.128 185.75,102.691 C187.475,105.125 189.924,108.998 189.808,110.688 C188.851,124.572 188.119,126.88 191.366,135.07 C190.84,137.044 187.664,141.071 185.154,139.534 C180.608,136.751 172.091,113.621 174.366,108.812 Z" id="Shape" fill="#C3CFFF"></path>
                    <polygon id="Shape" fill="#DFDDFE" points="186.252 102.998 195.628 95.647 200.998 103.759 190.116 110.188"></polygon>
                    <path d="M228.846,34.12 C224.767,33.739 220.349,28.564 218.649,26.024 L225.492,20.089 C225.955,20.565 227.531,21.708 230.127,22.47 C233.372,23.422 238.093,28.64 238.093,30.068 C238.093,31.497 233.945,34.597 228.846,34.12 Z" id="Shape" fill="#FFE0F5"></path>
                    <path d="M0.979,109.12 L58.358,49.996 C58.83,49.509 59.454,49.197 60.128,49.111 L435.372,1.057 L3.897,114.112 C0.959,114.882 -1.135,111.299 0.979,109.12 Z" id="Shape" fill="url(#linearGradient-1)"></path>
                    <path d="M420,10.035 L51.48,155.073 C49.213,155.966 46.88,153.924 47.466,151.558 L70.365,59.086 C70.656,57.911 71.626,57.027 72.823,56.845 L418.444,4.279 C421.979,3.741 423.326,8.726 420,10.035 Z" id="Shape" fill="url(#linearGradient-2)"></path>
                    <path d="M112.002,149.516 C106.718,132.947 81.89,87.038 70.972,57.942 C70.31,56.177 71.46,54.277 73.323,54 L434.055,0.383 C437.488,-0.127 438.908,4.626 435.757,6.075 L117.691,152.384 C115.597,153.348 112.702,151.713 112.002,149.516 Z" id="Shape" fill="url(#linearGradient-3)"></path>
                    <path d="M47.13,152.423 L70.47,59.744 C70.764,58.58 71.75,57.7 72.937,57.512 C216.97,34.803 286.048,24.123 430.771,1.303 L61.411,48.944 C60.046,49.12 58.976,50.203 58.818,51.57 L47.13,152.423 Z" id="Shape" fill="url(#linearGradient-4)"></path>
                </g>
                <g id="character" transform="translate(236.000000, 6.000000)">
                    <path d="M58.515,64.345 C57.628,66.212 57.219,70.042 56.157,79.071 L34.912,70.042 C36.062,68.244 42.081,64.938 38.927,60.74 C34.984,55.494 31.781,51.493 29.07,37.114 C26.359,22.734 35.721,10.496 49.026,7.709 C62.331,4.922 69.846,23.2 69.723,25.795 C69.6,28.39 74.774,37.007 75.783,39.054 C76.699,40.91 73.338,43.114 72.065,43.303 C72.435,48.13 72.848,56.16 71.003,59.236 C69.41,61.891 59.623,62.011 58.515,64.345 Z" id="Shape" fill="#FFE0F5"></path>
                    <path d="M24.109,27.535 C21.876,34.85 31.863,51.382 37.135,58.733 L39.633,57.824 C40.132,53.666 43.881,53.044 45.475,38.704 C49.783,16.4 65.185,28.598 69.434,12.682 C70.762,7.708 65.716,0.467 57.75,0.467 C49.783,0.467 46.02,4.293 39.633,7.371 C28.008,12.973 26.899,18.392 24.109,27.535 Z" id="Shape" fill="#92A9F8"></path>
                    <path d="M63.163,142.95 C49.41,128.981 43.981,114.843 37.826,106.997 C37.826,95.846 51.835,87.174 58.839,92.13 C60.511,93.312 62.519,98.883 65.324,106.046 L75.276,127.402 C85.841,145.091 100.761,159.692 100.761,161.041 C100.761,163.023 94.393,165.997 91.21,167.236 C83.569,161.66 70.064,149.959 63.163,142.95 Z" id="Shape" fill="#ABBDF8"></path>
                    <path d="M0.718,164.041 C1.498,144.75 14.232,113.586 24.29,91.289 C34.348,68.993 35.443,69.5099787 35.443,69.5099787 C36.982,69.883 52.791,75.729 56.739,78.54 C61.675,82.054 57.941,77.947 62.53,89.694 C67.119,101.44 63.063,118.337 62.53,123.003 C61.997,127.669 51.445,135.431 50.845,140.68 C49.409,153.257 50.845,155.551 50.845,169.36 C43.276,177.483 20.423,181.58 8.381,183.169 C5.888,182.492 -0.061,183.332 0.718,164.041 Z" id="Shape" fill="#D6DFFF"></path>
                    <path d="M132.105,183.169 C126.911,183.576 114.138,171.522 111.426,168.593 L117.292,161.165 C117.982,161.682 122.507,165.611 125.931,166.027 C130.212,166.548 139.65,172.547 139.979,174.406 C140.308,176.265 138.597,182.659 132.105,183.169 Z" id="Shape" fill="#FFE0F5"></path>
                    <path d="M71.559,146.522 C60.352,139.089 41.067,109.755 34.912,101.909 C34.912,90.759 48.921,82.087 55.925,87.042 C59.139,89.316 69.07,112.04 83.091,128.869 C101.746,147.65 118.93,160.565 120.421,161.924 C121.885,163.26 114.576,168.652 111.392,169.891 C103.751,164.316 82.765,153.956 71.559,146.522 Z" id="Shape" fill="#D6DFFF"></path>
                    <path d="M54.032,207.6 C39.232,204.362 8.888,204.413 3.577,180.513 C18.979,180.513 38.654,170.422 50.845,166.704 C56.157,170.422 88.331,182.834 98.114,189.542 C116.703,202.289 125.201,212.352 125.201,218.222 C125.201,224.093 96.16,272.1 92.035,272.687 C88.736,273.157 85.161,269.361 83.786,267.404 C88.304,251.945 96.278,220.792 92.035,219.853 C86.732,218.679 71.028,211.318 54.032,207.6 Z" id="Shape" fill="#3956C6"></path>
                    <polygon id="Shape" fill="#FFE0F5" points="79.661 279.145 83.786 267.991 92.624 272.1 86.732 283.254"></polygon>
                    <path d="M72.591,290.298 C72.119,286.072 76.715,281.101 79.072,279.145 C81.822,280.319 85.943,282.341 86.732,283.841 C93.214,296.169 93.803,298.517 100.874,303.801 C101.463,305.757 100.874,310.845 97.927,310.845 C92.592,310.845 73.18,295.582 72.591,290.298 Z" id="Shape" fill="#C3CFFF"></path>
                </g>
                <g id="clouds" fill="#FED0DB">
                    <path d="M63.415,28.449 C45.723,22.63 32.559,38.148 32.559,48.524 C31.183,47.629 26.024,46.716 21.598,50.109 C15.784,54.566 17.738,62.33 17.738,62.33 L6.059,62.33 C2.738,62.33 0.046,65.022 0.046,68.343 C0.046,71.663 2.738,74.355 6.059,74.355 L45.723,74.355 L139.555,74.355 L187.357,74.355 C190.678,74.355 193.37,71.663 193.37,68.343 C193.37,65.022 190.678,62.33 187.357,62.33 L179.217,62.33 C179.217,52.465 178.654,43.49 166.993,34.334 C156.378,26 140.305,33.056 139.555,34.334 C140.155,25.437 128.071,14.009 120.994,14.009 C120.994,8.405 117.178,0 107.484,0 C97.79,0 94.636,6.382 93.009,10.345 C89.149,4.203 79.483,7.436 79.483,14.009 C69.205,8.082 58.912,19.074 63.415,28.449 Z" id="Shape"></path>
                    <path d="M498.225,106.565 C487.288,106.565 482.702,115.572 481.777,120.075 C480.994,119.575 478.872,119.131 476.65,121.361 C474.429,123.592 475.155,126.58 475.796,127.795 L460.075,127.795 C457.943,127.795 456.217,129.523 456.217,131.655 C456.217,133.786 457.918,135.514 460.05,135.514 L565.634,135.514 C567.766,135.514 569.466,133.786 569.466,131.655 C569.466,129.523 571.194,127.795 573.326,127.795 L575.705,127.795 C577.472,127.795 578.904,126.363 578.904,124.596 C578.904,122.831 577.475,121.4 575.71,121.397 L558.484,121.37 C555.285,121.366 552.694,118.771 552.694,115.572 C552.694,113.427 552.054,109.996 547.995,109.996 C544.748,109.996 543.082,111.426 542.655,112.141 C542.997,107.166 536.674,102.491 533.47,100.775 C532.829,98.631 533.256,94.128 525.353,93.056 C519.03,92.198 515.598,96.415 514.672,98.631 C510.913,97.773 508.976,99.703 508.478,100.775 C502.497,99.575 499.15,104.135 498.225,106.565 Z" id="Shape"></path>
                </g>
            </g>
        </g>
    </g>
</svg>