<?xml version="1.0" encoding="UTF-8"?>
<svg width="16px" height="20px" viewBox="0 0 16 20" version="1.1" xmlns="http://www.w3.org/2000/svg" xmlns:xlink="http://www.w3.org/1999/xlink">
    <title>edit</title>
    <defs>
        <filter id="filter-1">
            <feColorMatrix in="SourceGraphic" type="matrix" values="0 0 0 0 0.505882 0 0 0 0 0.588235 0 0 0 0 0.403922 0 0 0 1.000000 0"></feColorMatrix>
        </filter>
    </defs>
    <g id="Page-1" stroke="none" stroke-width="1" fill="none" fill-rule="evenodd">
        <g id="HOME-/-DASHBOARD" transform="translate(-301.000000, -233.000000)">
            <g id="edit" transform="translate(296.000000, 231.000000)" filter="url(#filter-1)">
                <g>
                    <rect id="bound" x="0" y="0" width="24" height="24"></rect>
                    <path d="M8,17.9148182 L8,5.96685884 C8,5.56391781 8.16211443,5.17792052 8.44982609,4.89581508 L10.965708,2.42895648 C11.5426798,1.86322723 12.4640974,1.85620921 13.0496196,2.41308426 L15.5337377,4.77566479 C15.8314604,5.0588212 16,5.45170806 16,5.86258077 L16,17.9148182 C16,18.7432453 15.3284271,19.4148182 14.5,19.4148182 L9.5,19.4148182 C8.67157288,19.4148182 8,18.7432453 8,17.9148182 Z" id="Path-11" fill="#000000" fill-rule="nonzero" opacity="0.9" transform="translate(12.000000, 10.707409) rotate(-135.000000) translate(-12.000000, -10.707409) "></path>
                    <rect id="Rectangle" fill="#000000" opacity="0.5" x="5" y="20" width="15" height="2" rx="1"></rect>
                </g>
            </g>
        </g>
    </g>
</svg>